<svg width="208" height="255" viewBox="0 0 208 255" fill="none" xmlns="http://www.w3.org/2000/svg">
<mask id="path-1-inside-1_58_24" fill="white">
<path fill-rule="evenodd" clip-rule="evenodd" d="M54.2832 102.677L54.2832 8C54.2832 3.58173 57.8649 7.63543e-06 62.2832 7.24917e-06L145.204 0C149.622 -3.86257e-07 153.204 3.58172 153.204 8L153.204 102.677L199.473 102.677C205.956 102.677 209.747 109.985 206.013 115.285L110.284 251.167C107.097 255.69 100.39 255.69 97.2035 251.167L1.47399 115.285C-2.25988 109.985 1.53079 102.677 8.01398 102.677L54.2832 102.677Z"/>
</mask>
<path fill-rule="evenodd" clip-rule="evenodd" d="M54.2832 102.677L54.2832 8C54.2832 3.58173 57.8649 7.63543e-06 62.2832 7.24917e-06L145.204 0C149.622 -3.86257e-07 153.204 3.58172 153.204 8L153.204 102.677L199.473 102.677C205.956 102.677 209.747 109.985 206.013 115.285L110.284 251.167C107.097 255.69 100.39 255.69 97.2035 251.167L1.47399 115.285C-2.25988 109.985 1.53079 102.677 8.01398 102.677L54.2832 102.677Z" fill="#EFF1FE"/>
<path d="M54.2832 102.677V103.677H55.2832V102.677H54.2832ZM54.2832 8H53.2832H54.2832ZM62.2832 7.24917e-06V-0.999993V7.24917e-06ZM145.204 0L145.204 -1L145.204 0ZM153.204 8H152.204H153.204ZM153.204 102.677H152.204V103.677H153.204V102.677ZM199.473 102.677V101.677H199.473L199.473 102.677ZM206.013 115.285L205.196 114.709L206.013 115.285ZM110.284 251.167L109.466 250.591L110.284 251.167ZM97.2035 251.167L96.386 251.743L97.2035 251.167ZM1.47399 115.285L2.29149 114.709H2.29149L1.47399 115.285ZM8.01398 102.677V103.677V102.677ZM55.2832 102.677L55.2832 8H53.2832L53.2832 102.677H55.2832ZM55.2832 8C55.2832 4.13401 58.4172 1.00001 62.2832 1.00001V-0.999993C57.3126 -0.999992 53.2832 3.02944 53.2832 8H55.2832ZM62.2832 1.00001L145.204 1L145.204 -1L62.2832 -0.999993V1.00001ZM145.204 1C149.07 1 152.204 4.13401 152.204 8H154.204C154.204 3.02944 150.175 -1 145.204 -1L145.204 1ZM152.204 8L152.204 102.677H154.204L154.204 8L152.204 8ZM153.204 103.677L199.473 103.677L199.473 101.677L153.204 101.677L153.204 103.677ZM199.473 103.677C205.146 103.677 208.463 110.071 205.196 114.709L206.831 115.861C211.031 109.898 206.767 101.677 199.473 101.677V103.677ZM205.196 114.709L109.466 250.591L111.101 251.743L206.831 115.861L205.196 114.709ZM109.466 250.591C106.678 254.549 100.809 254.549 98.021 250.591L96.386 251.743C99.9711 256.832 107.516 256.832 111.101 251.743L109.466 250.591ZM98.021 250.591L2.29149 114.709L0.656495 115.861L96.386 251.743L98.021 250.591ZM2.29149 114.709C-0.975648 110.071 2.34118 103.677 8.01398 103.677V101.677C0.720389 101.677 -3.54412 109.898 0.656496 115.861L2.29149 114.709ZM8.01398 103.677L54.2832 103.677V101.677L8.01398 101.677V103.677Z" fill="#437EEB" mask="url(#path-1-inside-1_58_24)"/>
<path d="M98.1875 108.625H71.625V135.188H98.1875V108.625ZM76.9375 113.938H92.875V129.875H76.9375V113.938ZM87.5625 156.438H82.25V161.75H87.5625V156.438Z" fill="#F08021"/>
<path d="M98.1875 145.812H71.625V172.375H98.1875V145.812ZM76.9375 151.125H92.875V167.062H76.9375V151.125ZM119.438 119.25H124.75V124.562H119.438V119.25Z" fill="#F08021"/>
<path d="M108.812 108.625H135.375V135.188H108.812V108.625ZM114.125 113.938V129.875H130.062V113.938H114.125ZM103.5 140.5V151.125H108.812V156.438H103.5V161.75H114.125V151.125H119.438V161.75H124.75V156.438H135.375V151.125H119.438V140.5H103.5ZM114.125 151.125H108.812V145.812H114.125V151.125ZM135.375 161.75H130.062V167.062H119.438V172.375H135.375V161.75ZM114.125 172.375V167.062H103.5V172.375H114.125Z" fill="#F08021"/>
<path d="M124.75 145.812H135.375V140.5H124.75V145.812Z" fill="#F08021"/>
<circle cx="84.8473" cy="121.847" r="3.06944" fill="#437EEB"/>
</svg>
