<svg width="384" height="330" viewBox="0 0 384 330" fill="none" xmlns="http://www.w3.org/2000/svg">
<path d="M230.206 145.699C230.206 145.699 -6.59372 178.47 0.140977 219.241C6.89264 259.997 78.4297 242.022 52.7802 262.408C27.1307 282.793 129.949 353.985 242.438 321.154C336.927 293.581 407.124 239.024 359.879 199.473C301.642 150.702 253.922 194.079 268.087 160.51C282.252 126.941 230.206 145.714 230.206 145.714V145.699Z" fill="#EFF1FE"/>
<path d="M335.125 64.96L331.246 191.895L226.131 287.368L225.524 287.929L151.043 263.895L117.426 253.049L85.0624 242.59L75.1716 101.633L75.0633 99.3455L190.124 34.1888L335.125 64.96Z" fill="#437EEB"/>
<path d="M335.125 64.9598L225.617 139.116L75.064 99.3453L190.125 34.1886L335.125 64.9598Z" fill="#437EEB"/>
<path d="M335.125 64.9603L331.246 191.895L226.131 287.368L225.616 139.116L335.125 64.9603Z" fill="#2064AF"/>
<path d="M119.508 253.389L115.019 109.041L231.209 42.2371L264.793 49.5046L150.836 119.098L150.76 264.096L119.508 253.389Z" fill="#F08021"/>
<path d="M150.837 119.098L151.043 263.895L117.426 253.049C117.665 251.74 117.798 250.982 117.798 250.982L115.02 109.041L150.837 119.098Z" fill="#F08021"/>
</svg>
