<?xml version="1.0" encoding="UTF-8" standalone="no"?>
<!-- Created with Inkscape (http://www.inkscape.org/) -->

<svg
   version="1.1"
   id="svg2"
   width="1122.52"
   height="543.66132"
   viewBox="0 0 1122.52 543.66132"
   sodipodi:docname="logo.ai"
   xmlns:inkscape="http://www.inkscape.org/namespaces/inkscape"
   xmlns:sodipodi="http://sodipodi.sourceforge.net/DTD/sodipodi-0.dtd"
   xmlns="http://www.w3.org/2000/svg"
   xmlns:svg="http://www.w3.org/2000/svg">
  <defs
     id="defs6">
    <clipPath
       clipPathUnits="userSpaceOnUse"
       id="clipPath16">
      <path
         d="M 0,407.746 H 841.89 V 0 H 0 Z"
         id="path14" />
    </clipPath>
  </defs>
  <sodipodi:namedview
     id="namedview4"
     pagecolor="#ffffff"
     bordercolor="#000000"
     borderopacity="0.25"
     inkscape:showpageshadow="2"
     inkscape:pageopacity="0.0"
     inkscape:pagecheckerboard="0"
     inkscape:deskcolor="#d1d1d1" />
  <g
     id="g8"
     inkscape:groupmode="layer"
     inkscape:label="logo"
     transform="matrix(1.3333333,0,0,-1.3333333,0,543.66133)">
    <g
       id="g10">
      <g
         id="g12"
         clip-path="url(#clipPath16)">
        <g
           id="g18"
           transform="translate(559.8916,228.7824)">
          <path
             d="m 0,0 c -7.456,0 -13.501,6.045 -13.501,13.501 0,7.457 6.045,13.502 13.501,13.502 7.457,0 13.502,-6.045 13.502,-13.502 C 13.502,6.045 7.457,0 0,0 M -3.304,46.42 C -18.193,44.771 -30.156,32.736 -31.727,17.837 -33.304,2.869 -24.641,-10.29 -11.888,-15.535 v -28.838 c 0,-7.377 3.493,-10.87 10.87,-10.87 l 18.771,-2.486 -5.286,42.126 c 11.844,4.787 20.209,16.374 20.209,29.934 0,19.049 -16.493,34.246 -35.98,32.089"
             style="fill:#f08021;fill-opacity:1;fill-rule:nonzero;stroke:none"
             id="path20" />
        </g>
        <g
           id="g22"
           transform="translate(563.5986,171.4249)">
          <path
             d="m 0,0 c 4.794,-2.115 9.599,-4.205 14.378,-6.353 4.137,-1.858 8.311,-3.656 12.31,-5.779 0.404,-0.214 0.643,-0.736 0.834,-1.349 0.352,-1.123 -0.235,-2.348 -1.34,-2.751 -0.546,-0.199 -1.045,-0.306 -1.398,-0.126 -11.953,6.093 -25.819,8.654 -35.467,19.031 -1.12,1.204 -2.517,2.22 -3.371,3.582 -0.288,0.46 -0.499,0.968 -0.673,1.498 -0.487,1.48 0.704,2.967 2.26,2.906 0.483,-0.019 0.942,-0.093 1.355,-0.271 C 6.713,2.69 24.847,1.903 42.813,9.105 c 26.993,10.82 41.605,31.485 45.476,60.008 5.625,41.452 -21.805,88.401 -75.598,96.198 -19.087,2.767 -37.546,0.845 -55.589,-5.875 -0.153,-0.057 -0.312,-0.096 -0.477,-0.12 -1.934,-0.289 -3.207,2.21 -1.879,3.644 0.217,0.235 0.454,0.426 0.723,0.555 12.093,5.787 25.045,7.88 38.312,8.014 28.498,0.288 53.902,-7.74 74.389,-28.449 C 95.693,115.259 102.023,70.202 83.105,37.124 67.139,9.205 34.374,-5.667 2.809,0.668 2.01,0.828 1.191,0.895 0.383,1.005 0.255,0.67 0.127,0.335 0,0"
             style="fill:#f08021;fill-opacity:1;fill-rule:nonzero;stroke:none"
             id="path24" />
        </g>
        <g
           id="g26"
           transform="translate(559.4814,292.5402)">
          <path
             d="m 0,0 c 0.144,0.002 0.287,-0.007 0.429,-0.027 4.794,-0.699 9.625,-1.223 14.35,-2.241 0.14,-0.03 0.275,-0.08 0.407,-0.146 2.078,-1.04 1.265,-4.449 -1.059,-4.508 -0.16,-0.004 -0.316,0.008 -0.47,0.04 -20.141,4.189 -37.919,-0.511 -53.241,-14.12 -11.306,-10.041 -16.88,-23.194 -19.129,-37.829 -7.34,-47.761 18.814,-90.705 64.722,-106.398 3.808,-1.301 6.524,-3.322 6.804,-7.606 0.332,-5.063 -3.087,-8.938 -8.042,-8.11 -4.794,0.8 -9.57,2.359 -14.05,4.288 -20.558,8.849 -36.84,22.855 -49.088,41.572 -1.085,1.658 -2.277,3.53 0.01,4.887 2.262,1.343 3.326,-0.669 4.394,-2.29 13.407,-20.354 31.586,-34.622 54.621,-42.617 2.297,-0.797 5.472,-2.956 6.815,0.814 1.382,3.883 -2.532,3.915 -4.794,4.77 -38.307,14.474 -60.747,41.916 -66.884,82.384 -2.411,15.904 -0.643,31.586 5.253,46.616 C -49.428,-16.238 -26.142,-0.509 0,0"
             style="fill:#2064af;fill-opacity:1;fill-rule:nonzero;stroke:none"
             id="path28" />
        </g>
        <g
           id="g30"
           transform="translate(487.8057,218.442)">
          <path
             d="m 0,0 c -0.02,-0.145 -0.026,-0.292 -0.021,-0.439 0.462,-13.598 3.133,-26.572 8.042,-39.124 0.231,-0.589 0.743,-1.219 0.655,-1.752 -0.059,-0.354 -0.137,-0.706 -0.228,-1.056 -0.43,-1.662 -2.492,-2.472 -3.84,-1.408 -0.208,0.164 -0.364,0.348 -0.447,0.56 -1.974,5.049 -3.949,10.152 -5.232,15.405 -6.178,25.31 -4.814,50.086 7.255,73.484 17.005,32.972 59.065,48.087 92.829,33.864 24.157,-10.177 36.877,-38.312 28.383,-63.013 -3.088,-8.984 -8.848,-15.868 -17.361,-20.188 -0.292,-0.147 -0.638,-0.187 -1.016,-0.163 -1.862,0.119 -3.065,2.208 -2.05,3.772 0.153,0.236 0.331,0.423 0.548,0.537 17.465,9.118 19.694,29.913 15.835,43.6 C 117.716,64.067 103.981,75.348 83.816,78.628 45.214,84.906 11.122,61.05 3.107,22.265 1.594,14.942 1.004,7.429 0,0"
             style="fill:#f08021;fill-opacity:1;fill-rule:nonzero;stroke:none"
             id="path32" />
        </g>
        <g
           id="g34"
           transform="translate(559.7744,333.1515)">
          <path
             d="m 0,0 c 25.425,-0.536 48.34,-7.795 66.304,-27.151 23.326,-25.133 28.43,-63.859 12.049,-92.289 -2.254,-3.912 -5.161,-7.485 -8.084,-10.945 -0.215,-0.255 -0.547,-0.41 -0.945,-0.51 -1.753,-0.441 -3.473,1.217 -3.01,2.964 0.07,0.263 0.177,0.49 0.34,0.666 32.463,34.995 16.782,107.673 -46.704,119.99 -38.535,7.476 -70.807,-4.577 -96.764,-33.86 -0.419,-0.473 -0.715,-1.268 -1.214,-1.415 -0.341,-0.099 -0.689,-0.174 -1.041,-0.234 -1.597,-0.27 -3.127,1.079 -2.914,2.684 0.032,0.246 0.106,0.456 0.241,0.613 3.705,4.308 7.369,8.732 11.603,12.49 C -50.233,-9.333 -26.895,-0.343 0,0"
             style="fill:#2064af;fill-opacity:1;fill-rule:nonzero;stroke:none"
             id="path36" />
        </g>
        <g
           id="g38"
           transform="translate(637.6221,251.1071)">
          <path
             d="m 0,0 c 0.032,-27.625 -14.473,-49.247 -38.748,-57.546 -3.21,-1.097 -6.593,-1.852 -9.957,-2.248 -1.32,-0.156 -3.738,0.823 -4.034,1.785 -0.691,2.238 1.349,2.768 3.247,3.045 11.532,1.68 21.44,6.657 29.518,15.045 11.527,11.967 15.917,26.737 14.818,42.853 -2.432,35.642 -28.803,61.315 -64.548,63.633 -1.264,0.082 -2.527,0.155 -3.79,0.249 -1.882,0.139 -3.964,0.557 -3.368,2.915 0.245,0.967 2.386,2.12 3.619,2.069 11.614,-0.486 22.82,-2.909 33.323,-8.024 C -15.446,51.857 -0.031,27.174 0,0"
             style="fill:#f08021;fill-opacity:1;fill-rule:nonzero;stroke:none"
             id="path40" />
        </g>
        <g
           id="g42"
           transform="translate(473.165,216.9752)">
          <path
             d="m 0,0 c 0.693,23.323 4.935,44.753 19.259,62.82 4.899,6.18 11.143,11.318 16.992,16.692 0.946,0.869 3.802,1.219 4.461,0.538 1.782,-1.843 0.077,-3.351 -1.548,-4.539 C 17.048,59.349 7.549,36.491 5.685,10.172 3.048,-27.04 15.693,-58.624 42.646,-84.444 c 1.423,-1.363 3.051,-2.762 1.167,-4.737 -1.733,-1.816 -3.191,-0.397 -4.522,0.86 C 17.26,-67.53 4.345,-42.14 0.891,-12.013 0.4,-7.744 0.247,-3.437 0,0"
             style="fill:#2064af;fill-opacity:1;fill-rule:nonzero;stroke:none"
             id="path44" />
        </g>
        <g
           id="g46"
           transform="translate(504.2783,216.9816)">
          <path
             d="m 0,0 c -0.004,0.061 -0.005,0.119 -0.004,0.18 0.184,12.647 2.025,24.048 7.096,34.722 0.074,0.156 0.171,0.3 0.287,0.435 1.531,1.789 4.719,0.384 4.331,-1.939 -0.025,-0.147 -0.064,-0.289 -0.12,-0.423 -17.034,-40.517 0.679,-88.409 40.141,-107.964 4.288,-2.125 8.809,-3.832 13.332,-5.417 8.077,-2.83 12.181,-8.653 13.263,-16.869 0.264,-2.008 0.476,-4.522 -2.34,-4.726 -2.545,-0.185 -2.631,2.048 -2.797,4.053 -0.565,6.83 -4.377,10.832 -10.804,13.103 -31.916,11.281 -52.055,33.396 -60.236,66.279 -0.821,3.3 -1.272,6.711 -1.653,10.098 C 0.148,-5.371 0.117,-2.238 0,0"
             style="fill:#f08021;fill-opacity:1;fill-rule:nonzero;stroke:none"
             id="path48" />
        </g>
        <g
           id="g50"
           transform="translate(559.5742,308.1271)">
          <path
             d="m 0,0 c -10.123,0.031 -19.868,-1.905 -29.267,-5.626 -1.797,-0.713 -3.805,-1.737 -4.851,0.776 -1.081,2.597 1.169,3.211 2.941,3.854 26.447,9.601 52.049,9.042 75.502,-7.897 13.655,-9.862 21.093,-23.985 23.226,-40.724 0.042,-0.331 -0.031,-0.677 -0.173,-1.032 -0.692,-1.727 -3.059,-2.225 -4.215,-0.767 -0.169,0.214 -0.292,0.438 -0.345,0.678 C 55.456,-17.388 34.011,-0.007 0,0"
             style="fill:#2064af;fill-opacity:1;fill-rule:nonzero;stroke:none"
             id="path52" />
        </g>
        <g
           id="g54"
           transform="translate(605.8604,164.4747)">
          <path
             d="m 0,0 c -1.743,-0.562 -2.26,-2.759 -0.972,-4.06 6.941,-7.009 11.822,-14.857 14.647,-24.022 0.298,-0.965 0.835,-2 0.697,-2.917 -0.145,-0.963 -0.9,-2.509 -1.513,-2.57 -0.999,-0.102 -2.263,0.606 -3.1,1.336 -0.574,0.5 -0.625,1.611 -0.89,2.456 -3.438,10.974 -9.783,19.876 -18.927,26.852 -0.54,0.412 -0.984,0.948 -1.397,1.528 -0.818,1.145 -0.482,2.768 0.728,3.487 0.596,0.354 1.204,0.655 1.846,0.8 24.319,5.466 42.741,18.843 55.115,40.56 0.076,0.132 0.165,0.255 0.268,0.371 1.457,1.652 4.283,0.331 4.145,-1.867 C 50.625,41.595 50.549,41.265 50.392,40.979 39.415,20.997 22.897,7.616 1.309,0.429 0.877,0.285 0.445,0.144 0,0"
             style="fill:#2064af;fill-opacity:1;fill-rule:nonzero;stroke:none"
             id="path56" />
        </g>
        <g
           id="g58"
           transform="translate(547.8828,319.7306)">
          <path
             d="m 0,0 c -0.358,-1.127 -1.637,-2.375 -2.802,-2.767 -8.111,-2.735 -16.689,-4.418 -24.377,-8.019 -21.184,-9.926 -35.934,-26.231 -44.548,-48.025 -0.278,-0.706 -0.571,-1.406 -0.817,-2.123 -0.615,-1.791 -1.552,-3.687 -3.661,-2.537 -0.88,0.479 -1.493,2.923 -1.088,4.073 11.782,33.429 40.814,56.176 73.858,61.578 C -3.185,2.221 0.202,0.634 0,0"
             style="fill:#f08021;fill-opacity:1;fill-rule:nonzero;stroke:none"
             id="path60" />
        </g>
        <g
           id="g62"
           transform="translate(591.584,119.797)">
          <path
             d="M 0,0 -0.025,-0.028 C -0.987,-1.079 -2.662,-1.082 -3.612,-0.019 -3.957,0.368 -4.216,0.767 -4.278,1.194 -5.871,12 -11.93,18.581 -22.279,21.903 c -16.409,5.267 -29.613,15.123 -39.758,29.06 -0.595,0.817 -1.484,1.623 -1.616,2.525 -0.04,0.279 -0.046,0.563 -0.03,0.851 0.091,1.523 1.584,2.594 3.053,2.178 0.361,-0.103 0.72,-0.215 1.071,-0.345 0.395,-0.146 0.613,-0.776 0.905,-1.19 9.911,-14.006 23.033,-23.585 39.398,-28.793 C -9.032,22.936 -2.652,15.945 0.018,5.576 0.273,4.58 0.382,3.546 0.604,1.977 0.706,1.261 0.487,0.532 0,0"
             style="fill:#2064af;fill-opacity:1;fill-rule:nonzero;stroke:none"
             id="path64" />
        </g>
        <g
           id="g66"
           transform="translate(620.0068,159.0519)">
          <path
             d="m 0,0 c 2.722,-5.693 5.378,-11.102 7.885,-16.577 0.82,-1.792 1.928,-4.11 -0.853,-5.134 -2.592,-0.954 -2.884,1.553 -3.75,3.168 -3.094,5.77 -6.046,11.636 -9.519,17.172 -1.733,2.761 -1.39,3.828 1.47,4.994 13.955,5.691 25.829,14.297 35.555,25.829 1.224,1.451 2.749,2.982 4.275,1.13 0.666,-0.808 0.201,-3.423 -0.659,-4.478 C 26.062,15.854 15.814,7.938 4.007,2.027 2.568,1.308 1.136,0.575 0,0"
             style="fill:#f08021;fill-opacity:1;fill-rule:nonzero;stroke:none"
             id="path68" />
        </g>
        <g
           id="g70"
           transform="translate(635.4756,155.7677)">
          <path
             d="m 0,0 c -1.015,-0.729 -1.388,-2.084 -0.864,-3.218 0.6,-1.302 1.185,-2.607 1.49,-3.975 0.059,-0.263 0.036,-0.543 -0.035,-0.834 -0.395,-1.599 -2.308,-2.379 -3.738,-1.562 -0.287,0.163 -0.524,0.358 -0.677,0.604 -1.459,2.336 -2.697,4.885 -3.521,7.507 -0.342,1.086 0.167,3.16 1.02,3.783 5.189,3.785 10.528,7.38 15.978,10.778 0.313,0.195 0.723,0.232 1.182,0.193 1.673,-0.142 2.841,-1.934 2.17,-3.472 C 12.906,9.577 12.778,9.389 12.607,9.255 8.578,6.104 4.391,3.153 0,0"
             style="fill:#2064af;fill-opacity:1;fill-rule:nonzero;stroke:none"
             id="path72" />
        </g>
        <g
           id="g74"
           transform="translate(611.002,131.1788)">
          <path
             d="m 0,0 c 0.853,-1.793 0.603,-3.996 -0.816,-5.385 -0.24,-0.234 -0.463,-0.373 -0.687,-0.372 -1.04,0.005 -2.594,0.927 -3.025,1.869 -2.395,5.228 -4.616,10.544 -6.642,15.925 -0.37,0.981 0.142,2.629 0.829,3.519 0.303,0.39 2.737,-0.002 3.063,-0.63 C -4.751,10.038 -2.404,5.057 0,0"
             style="fill:#f08021;fill-opacity:1;fill-rule:nonzero;stroke:none"
             id="path76" />
        </g>
        <g
           id="g78"
           transform="translate(602.458,267.6588)">
          <path
             d="m 0,0 c -0.308,-0.335 -0.854,-1.459 -1.574,-1.583 -0.925,-0.16 -2.324,0.17 -2.936,0.83 -4.001,4.32 -7.902,8.737 -11.676,13.256 -0.561,0.672 -0.643,2.201 -0.277,3.04 0.266,0.607 1.694,1.114 2.513,1.001 C -10.561,16.076 -0.095,3.969 0,0"
             style="fill:#2064af;fill-opacity:1;fill-rule:nonzero;stroke:none"
             id="path80" />
        </g>
        <g
           id="g82"
           transform="translate(299.1523,140.2921)">
          <path
             d="m 0,0 c 0,-2.451 -1.147,-3.677 -3.439,-3.677 h -41.986 c -2.294,0 -3.439,1.383 -3.439,4.152 0,7.985 0.296,19.963 0.889,35.936 0.593,15.971 0.89,27.949 0.89,35.937 0,2.292 -0.356,3.517 -1.068,3.676 -0.871,-0.474 -6.167,-12.69 -15.892,-36.648 -5.693,-14.074 -11.386,-28.108 -17.079,-42.104 -0.792,-1.818 -1.779,-2.885 -2.965,-3.202 -0.397,-0.078 -1.977,-0.119 -4.744,-0.119 -4.112,0 -6.564,0.792 -7.354,2.372 -4.27,8.698 -9.884,21.349 -16.841,37.953 -7.433,17.554 -13.008,30.244 -16.723,38.072 -0.16,0.394 -0.516,0.83 -1.067,1.304 -0.555,-0.712 -0.831,-1.859 -0.831,-3.439 0,-7.75 0.196,-19.373 0.593,-34.869 0.395,-15.498 0.593,-27.121 0.593,-34.869 0,-2.769 -1.108,-4.152 -3.321,-4.152 h -39.613 c -1.582,0 -2.55,0.256 -2.906,0.772 -0.355,0.512 -0.533,1.402 -0.533,2.668 0,8.617 0.415,21.565 1.245,38.842 0.83,17.275 1.245,30.224 1.245,38.843 0,9.171 -0.396,26.368 -1.186,51.592 -0.079,6.562 -0.435,16.326 -1.067,29.294 l -0.119,2.017 c -0.079,1.58 1.581,2.372 4.982,2.372 4.347,0 10.87,0.137 19.569,0.415 8.697,0.276 15.22,0.415 19.569,0.415 0.869,0 2.095,-1.66 3.677,-4.981 l 34.632,-76.025 c 2.45,-5.14 4.507,-7.709 6.167,-7.709 0.87,0 2.728,2.965 5.575,8.895 7.985,16.605 19.806,41.63 35.462,75.076 1.343,3.084 2.805,4.625 4.388,4.625 2.292,0 5.752,-0.118 10.378,-0.355 4.625,-0.238 8.124,-0.356 10.496,-0.356 1.975,0 5,0.196 9.073,0.593 4.071,0.394 7.096,0.593 9.073,0.593 2.372,0 3.558,-0.949 3.558,-2.846 0,-9.332 -0.337,-23.267 -1.008,-41.808 -0.673,-18.543 -1.008,-32.479 -1.008,-41.807 0,-8.619 0.356,-21.547 1.068,-38.783 C -0.356,21.427 0,8.539 0,0"
             style="fill:#2064af;fill-opacity:1;fill-rule:nonzero;stroke:none"
             id="path84" />
        </g>
        <g
           id="g86"
           transform="translate(413.96,188.3263)">
          <path
             d="m 0,0 c 0,7.116 -2.966,11.938 -8.896,14.469 -3.795,1.581 -9.962,2.372 -18.502,2.372 -10.2,0 -15.734,-0.376 -16.604,-1.126 -0.871,-0.753 -1.305,-5.595 -1.305,-14.529 0,-9.331 0.514,-14.49 1.542,-15.478 1.027,-0.989 6.72,-1.482 17.079,-1.482 8.539,0 14.547,0.67 18.027,2.016 C -2.888,-11.466 0,-6.879 0,0 m -3.559,66.299 c 0,6.799 -3.399,11.306 -10.199,13.52 -3.796,1.186 -10.042,1.78 -18.74,1.78 -8.539,0 -12.809,-0.635 -12.809,-1.898 0,-1.503 -0.138,-3.777 -0.415,-6.82 -0.278,-3.045 -0.415,-5.318 -0.415,-6.819 0,-7.908 0.671,-12.335 2.016,-13.284 0.87,-0.712 5.89,-1.068 15.063,-1.068 16.999,0 25.499,4.863 25.499,14.589 m 51,-66.774 c 0,-14.548 -4.547,-26.607 -13.639,-36.173 -10.36,-10.992 -28.544,-16.486 -54.558,-16.486 -1.977,0 -4.823,0.041 -8.539,0.118 h -8.421 c -29.177,0 -46.533,0.594 -52.067,1.78 -2.294,0.474 -3.439,1.699 -3.439,3.676 0,8.46 0.493,21.269 1.482,38.427 0.988,17.157 1.483,30.007 1.483,38.547 0,9.17 -0.474,26.407 -1.423,51.71 -0.237,6.482 -0.673,16.208 -1.305,29.176 l -0.119,1.66 c -0.079,1.501 1.166,2.412 3.736,2.728 2.569,0.315 11.722,0.475 27.457,0.475 25.222,0 39.969,-0.08 44.239,-0.237 19.451,-0.712 33.802,-3.875 43.053,-9.488 12.256,-7.513 18.384,-20.204 18.384,-38.072 0,-4.666 -1.424,-9.607 -4.27,-14.825 -2.057,-3.718 -4.744,-7.433 -8.065,-11.149 -2.926,-3.243 -4.389,-4.744 -4.389,-4.507 0,-0.554 1.027,-1.423 3.084,-2.609 5.533,-3.163 9.884,-8.184 13.046,-15.063 2.847,-6.167 4.27,-12.731 4.27,-19.688"
             style="fill:#2064af;fill-opacity:1;fill-rule:nonzero;stroke:none"
             id="path88" />
        </g>
        <g
           id="g90"
           transform="translate(802.6738,152.3898)">
          <path
             d="m 0,0 c 0,-7.75 -0.355,-12.335 -1.067,-13.758 -0.871,-1.74 -3.559,-2.609 -8.066,-2.609 h -4.744 c -2.372,0.08 -4.369,0.118 -5.989,0.118 -1.621,0 -4.032,0.08 -7.235,0.237 -3.202,0.16 -5.594,0.238 -7.175,0.238 -1.265,0 -6.958,7.59 -17.078,22.771 -10.123,15.182 -15.379,22.811 -15.775,22.891 -1.66,-1.346 -7.353,-9.331 -17.079,-23.958 -9.33,-13.995 -14.785,-21.23 -16.367,-21.704 -1.109,-0.315 -4.073,-0.475 -8.895,-0.475 -16.209,0 -24.313,0.831 -24.313,2.491 0,1.66 -0.101,4.032 -0.297,7.116 -0.197,3.083 -0.297,5.376 -0.297,6.879 0,9.803 0.594,15.576 1.779,17.316 0.078,0.078 6.601,8.736 19.57,25.974 10.514,13.915 15.774,21.862 15.774,23.839 0,1.975 -5.26,9.803 -15.774,23.484 -6.642,8.459 -13.244,16.96 -19.807,25.499 -0.712,1.027 -1.146,2.728 -1.305,5.1 -0.079,1.66 -0.079,3.914 0,6.76 0.238,3.399 0.357,5.296 0.357,5.693 0,1.581 -0.139,4.033 -0.416,7.353 -0.278,3.321 -0.415,5.771 -0.415,7.354 0,1.501 1.383,2.253 4.151,2.253 1.818,0 4.507,-0.118 8.066,-0.356 3.557,-0.237 6.206,-0.355 7.946,-0.355 1.581,0 3.914,0.078 6.997,0.237 3.084,0.157 5.377,0.237 6.879,0.237 1.263,0 7.016,-7.69 17.257,-23.068 10.239,-15.38 15.596,-23.068 16.07,-23.068 1.582,0.949 7.394,9.013 17.435,24.195 9.566,14.627 15.062,21.941 16.486,21.941 H -5.1 c 2.767,0 4.151,-0.673 4.151,-2.016 v -28.82 c 0,-2.058 -6.108,-11.031 -18.324,-26.923 -12.216,-15.893 -18.324,-24.314 -18.324,-25.262 0,-1.346 5.376,-9.133 16.13,-23.365 C -8.817,27.555 -2.214,18.817 -1.66,18.027 -0.554,16.287 0,10.277 0,0"
             style="fill:#2064af;fill-opacity:1;fill-rule:nonzero;stroke:none"
             id="path92" />
        </g>
        <g
           id="g94"
           transform="translate(47.5425,160.2287)">
          <path
             d="m 0,0 c -0.697,-13.623 -1.075,-20.489 -1.136,-20.644 0.051,-1.872 1.272,-3.041 3.683,-3.497 3.394,-0.621 11.289,-0.932 23.685,-0.932 9.252,0 16.638,0.311 22.157,0.932 2.038,0.234 3.14,0.388 3.311,0.467 0.764,0.388 1.146,1.36 1.146,2.915 0,9.173 -0.255,22.975 -0.764,41.401 -0.064,2.337 -0.125,4.595 -0.181,6.78 -0.055,2.128 -1.659,3.814 -3.621,3.814 H 4.875 c -1.936,0 -3.53,-1.642 -3.618,-3.742 C 0.92,19.492 0.501,10.331 0,0"
             style="fill:#2064af;fill-opacity:1;fill-rule:nonzero;stroke:none"
             id="path96" />
        </g>
        <g
           id="g98"
           transform="translate(45.5537,143.2882)">
          <path
             d="m 0,0 -0.099,-1.812 -0.053,-0.9 -0.029,-0.443 -0.016,-0.208 -0.008,-0.1 c 0,0.01 0.009,0.073 0.019,0.107 l 0.01,0.029 c 0.029,0 -0.071,0.049 0.144,-0.02 0.296,-0.091 0.585,-0.208 0.865,-0.347 l -1.059,-0.044 c 0.018,-0.653 0.166,-1.36 0.488,-1.99 0.315,-0.634 0.797,-1.14 1.296,-1.499 1.011,-0.713 2.081,-0.988 3.071,-1.148 1.943,-0.303 3.819,-0.414 5.709,-0.52 3.772,-0.189 7.528,-0.242 11.284,-0.269 7.505,-0.029 15.022,0.007 22.542,0.496 1.88,0.125 3.76,0.278 5.64,0.488 l 2.816,0.351 0.717,0.109 c 0.183,0.033 0.643,0.084 0.984,0.354 0.62,0.434 0.956,1.128 1.112,1.727 0.164,0.613 0.202,1.195 0.205,1.755 L 55.604,-2.351 55.533,0.702 55.39,6.809 54.814,31.23 c -0.086,4.072 -0.195,8.14 -0.336,12.206 -0.026,0.505 -0.005,0.998 -0.101,1.608 -0.095,0.577 -0.297,1.134 -0.589,1.626 -0.581,0.988 -1.527,1.709 -2.578,1.962 -0.532,0.138 -1.077,0.113 -1.518,0.112 L 48.287,48.735 45.475,48.718 22.983,48.582 11.738,48.515 8.927,48.499 7.521,48.491 C 7.067,48.482 6.567,48.515 6.063,48.392 5.072,48.167 4.18,47.502 3.628,46.588 3.351,46.133 3.157,45.617 3.062,45.082 2.967,44.531 2.98,44.025 2.951,43.521 L 1.949,19.135 c -0.121,-2.913 0.134,-2.933 0.28,-0.017 l 1.227,24.376 c 0.026,1.041 0.092,1.978 0.616,2.771 0.483,0.783 1.257,1.344 2.105,1.527 0.82,0.145 1.835,0.035 2.749,0.062 l 2.811,-0.017 11.245,-0.066 22.493,-0.136 2.811,-0.018 c 0.905,-0.037 1.962,0.065 2.685,-0.107 0.779,-0.197 1.474,-0.742 1.894,-1.476 0.457,-0.76 0.487,-1.552 0.488,-2.633 0.099,-4.07 0.165,-8.138 0.21,-12.205 l 0.325,-24.401 0.082,-6.1 0.041,-3.049 0.019,-1.518 c -0.006,-0.455 -0.049,-0.898 -0.153,-1.262 -0.101,-0.37 -0.263,-0.617 -0.441,-0.735 0.043,-0.042 -0.614,-0.123 -1.022,-0.179 L 49.64,-6.361 C 47.789,-6.547 45.928,-6.678 44.066,-6.78 36.612,-7.183 29.125,-7.14 21.641,-7.034 c -3.74,0.065 -7.48,0.155 -11.196,0.377 -1.85,0.119 -3.721,0.254 -5.487,0.547 -0.853,0.135 -1.645,0.396 -2.206,0.805 -0.56,0.414 -0.792,0.908 -0.82,1.636 L 1.845,-4.164 c 0.048,0.14 0.085,0.321 0.097,0.446 l 0.011,0.126 0.021,0.246 0.034,0.465 0.06,0.914 0.113,1.821 C 3.466,22.529 1.121,22.692 0,0"
             style="fill:#2064af;fill-opacity:1;fill-rule:nonzero;stroke:none"
             id="path100" />
        </g>
        <g
           id="g102"
           transform="translate(100.5142,261.9684)">
          <path
             d="m 0,0 c 0.981,16.753 1.475,29.318 1.475,37.697 0,1.721 -1.241,2.583 -3.719,2.583 -2.651,0 -6.562,-0.117 -11.733,-0.352 -5.173,-0.235 -9.085,-0.352 -11.733,-0.352 -2.651,0 -6.648,0.117 -11.99,0.352 -5.343,0.235 -9.341,0.352 -11.989,0.352 -1.968,0 -2.949,-0.862 -2.949,-2.583 0,-8.379 0.298,-20.944 0.897,-37.697 0.171,-4.792 0.317,-9.236 0.439,-13.341 0.05,-1.66 1.304,-2.972 2.835,-2.972 h 44.909 c 1.508,0 2.753,1.274 2.832,2.908 C -0.524,-9.282 -0.283,-4.817 0,0"
             style="fill:#2064af;fill-opacity:1;fill-rule:nonzero;stroke:none"
             id="path104" />
        </g>
        <g
           id="g106"
           transform="translate(102.521,279.2233)">
          <path
             d="m 0,0 c 0.172,4.219 0.322,8.44 0.411,12.668 0.044,2.114 0.074,4.23 0.079,6.349 -0.004,0.556 0.01,1.001 -0.01,1.648 -0.018,0.709 -0.296,1.558 -0.826,2.137 -1.108,1.134 -2.342,1.213 -3.386,1.298 l -23.351,-0.794 c -7.734,0.11 -15.496,0.348 -23.299,0.515 -0.494,0.007 -0.958,0.031 -1.477,0.025 -0.539,-0.018 -1.103,-0.086 -1.68,-0.319 -0.571,-0.226 -1.166,-0.702 -1.485,-1.365 -0.321,-0.641 -0.376,-1.381 -0.352,-1.921 l 0.182,-6.33 0.366,-12.659 c 0.265,-8.435 0.436,-16.881 0.794,-25.303 l 0.241,-6.32 c -0.036,-1.153 0.536,-2.449 1.491,-3.098 0.474,-0.331 1.025,-0.544 1.587,-0.578 0.55,-0.022 0.989,-0.001 1.489,-0.004 l 11.657,0.07 23.312,0.134 5.828,0.033 2.917,0.018 c 1.049,0.013 2.057,0.668 2.573,1.651 0.257,0.487 0.395,1.06 0.404,1.605 l 0.078,1.579 0.157,3.158 0.314,6.315 c 0.148,2.963 -0.109,2.986 -0.283,0.019 l -0.369,-6.313 -0.185,-3.157 c -0.108,-1.049 0.025,-2.153 -0.458,-2.99 -0.457,-0.849 -1.334,-1.405 -2.238,-1.406 l -2.91,0.014 -5.827,0.032 -23.312,0.134 -11.657,0.07 c -0.471,0.007 -1.004,-0.004 -1.424,0.019 -0.409,0.028 -0.802,0.189 -1.142,0.43 -0.685,0.51 -1.076,1.336 -1.049,2.298 l -0.175,6.325 c -0.272,8.438 -0.354,16.864 -0.534,25.293 l -0.236,12.642 -0.119,6.32 c -0.026,0.988 0.223,1.485 0.897,1.758 0.337,0.132 0.753,0.189 1.182,0.197 l 1.436,-0.044 c 7.734,-0.256 15.509,-0.583 23.311,-0.778 l 23.256,0.552 c 0.854,-0.034 1.708,-0.274 2.016,-0.656 0.148,-0.182 0.234,-0.383 0.246,-0.727 L -1.565,19.03 C -1.587,16.932 -1.634,14.831 -1.695,12.729 -1.816,8.526 -1.996,4.321 -2.198,0.116 -2.774,-11.401 -2.588,-17.209 -2.007,-17.255 -1.45,-17.299 -0.496,-11.575 0,0"
             style="fill:#2064af;fill-opacity:1;fill-rule:nonzero;stroke:none"
             id="path108" />
        </g>
        <g
           id="g110"
           transform="translate(96.688,241.7213)">
          <path
             d="m 0,0 h -44.519 c -1.534,0 -2.767,-1.381 -2.727,-3.046 0.152,-6.35 0.229,-11.643 0.229,-15.864 0,-5.339 -0.223,-13.84 -0.667,-25.459 -0.065,-1.681 1.175,-3.088 2.726,-3.088 h 44.942 c 1.533,0 2.766,1.37 2.728,3.033 -0.24,10.686 -0.36,19.192 -0.36,25.514 0,4.21 0.125,9.487 0.373,15.815 C 2.791,-1.412 1.551,0 0,0"
             style="fill:#2064af;fill-opacity:1;fill-rule:nonzero;stroke:none"
             id="path112" />
        </g>
        <g
           id="g114"
           transform="translate(82.3843,242.9157)">
          <path
             d="m 0,0 -20.872,-0.107 -5.218,-0.029 -2.609,-0.015 -1.305,-0.008 c -0.437,0.016 -1.139,-0.069 -1.647,-0.325 -1.081,-0.505 -1.903,-1.584 -2.139,-2.833 -0.064,-0.31 -0.083,-0.628 -0.082,-0.943 l 0.014,-0.708 0.028,-1.414 0.11,-5.654 c 0.281,-7.541 -0.002,-15.08 -0.143,-22.621 l -0.116,-5.657 -0.059,-2.828 -0.029,-1.415 c 10e-4,-0.491 -0.045,-0.88 0.003,-1.526 0.11,-1.191 0.793,-2.275 1.747,-2.847 0.479,-0.283 1.021,-0.441 1.563,-0.455 l 1.324,0.004 5.219,0.035 20.876,0.141 10.438,0.071 5.218,0.034 1.305,0.009 0.652,0.005 c 0.246,0.007 0.498,0.032 0.739,0.1 0.975,0.251 1.798,1.044 2.16,2.048 0.185,0.49 0.23,1.081 0.208,1.554 l -0.028,1.415 -0.056,2.831 -0.111,5.661 -0.221,11.324 c -0.135,3.776 -0.008,7.548 0.056,11.321 l 0.105,5.66 0.053,2.83 c 0.048,0.992 -0.367,2.007 -1.092,2.615 -1.07,0.846 -1.825,0.553 -1.787,0.533 -0.023,-0.121 0.668,-0.002 1.61,-0.772 1.454,-1.191 0.812,-3.368 0.878,-5.193 l -0.163,-5.664 c -0.102,-3.777 -0.268,-7.554 -0.173,-11.331 l 0.099,-11.332 0.049,-5.667 0.023,-2.833 0.013,-1.417 c 0.012,-0.469 -0.027,-0.837 -0.17,-1.228 -0.282,-0.753 -0.91,-1.342 -1.637,-1.517 -0.181,-0.049 -0.365,-0.064 -0.554,-0.069 l -0.652,0.005 -1.305,0.008 -5.218,0.036 -10.438,0.07 -20.877,0.141 -5.219,0.036 -1.285,0.012 c -0.327,0.014 -0.646,0.113 -0.93,0.284 -0.565,0.352 -0.965,1.005 -1.019,1.704 l 0.336,11.225 c 0.225,7.56 0.59,15.121 0.388,22.687 l -0.053,5.674 -0.013,1.418 -0.007,0.707 c 0.004,0.157 0.012,0.313 0.047,0.463 0.119,0.607 0.536,1.135 1.059,1.371 0.294,0.119 0.472,0.153 0.905,0.146 l 1.304,-0.008 2.609,-0.015 5.218,-0.029 L 0,-2.389 C 19.055,-2.479 19.088,0.09 0,0"
             style="fill:#2064af;fill-opacity:1;fill-rule:nonzero;stroke:none"
             id="path116" />
        </g>
        <g
           id="g118"
           transform="translate(64.874,260.8712)">
          <path
             d="m 0,0 h 26.2 c 0.423,0 0.766,0.343 0.766,0.766 v 0.925 c 0,0.423 -0.343,0.766 -0.766,0.766 H 0 c -0.423,0 -0.766,-0.343 -0.766,-0.766 V 0.766 C -0.766,0.343 -0.423,0 0,0"
             style="fill:#f08021;fill-opacity:1;fill-rule:nonzero;stroke:none"
             id="path120" />
        </g>
        <g
           id="g122"
           transform="translate(64.874,285.8586)">
          <path
             d="m 0,0 h 26.2 c 0.423,0 0.766,0.343 0.766,0.766 v 0.925 c 0,0.423 -0.343,0.766 -0.766,0.766 H 0 c -0.423,0 -0.766,-0.343 -0.766,-0.766 V 0.766 C -0.766,0.343 -0.423,0 0,0"
             style="fill:#f08021;fill-opacity:1;fill-rule:nonzero;stroke:none"
             id="path124" />
        </g>
        <g
           id="g126"
           transform="translate(54.3726,273.9425)">
          <path
             d="m 0,0 c 0,-2.219 1.799,-4.018 4.018,-4.018 2.219,0 4.018,1.799 4.018,4.018 0,2.219 -1.799,4.018 -4.018,4.018 C 1.799,4.018 0,2.219 0,0"
             style="fill:#ffffff;fill-opacity:1;fill-rule:nonzero;stroke:none"
             id="path128" />
        </g>
        <g
           id="g130"
           transform="translate(64.874,204.5016)">
          <path
             d="m 0,0 h 26.2 c 0.423,0 0.766,0.343 0.766,0.766 v 0.925 c 0,0.423 -0.343,0.766 -0.766,0.766 H 0 c -0.423,0 -0.766,-0.343 -0.766,-0.766 V 0.766 C -0.766,0.343 -0.423,0 0,0"
             style="fill:#f08021;fill-opacity:1;fill-rule:nonzero;stroke:none"
             id="path132" />
        </g>
        <g
           id="g134"
           transform="translate(64.874,229.4894)">
          <path
             d="m 0,0 h 26.2 c 0.423,0 0.766,0.343 0.766,0.766 v 0.925 c 0,0.423 -0.343,0.766 -0.766,0.766 H 0 c -0.423,0 -0.766,-0.343 -0.766,-0.766 V 0.766 C -0.766,0.343 -0.423,0 0,0"
             style="fill:#f08021;fill-opacity:1;fill-rule:nonzero;stroke:none"
             id="path136" />
        </g>
        <g
           id="g138"
           transform="translate(54.3726,217.5734)">
          <path
             d="m 0,0 c 0,-2.219 1.799,-4.018 4.018,-4.018 2.219,0 4.018,1.799 4.018,4.018 0,2.219 -1.799,4.018 -4.018,4.018 C 1.799,4.018 0,2.219 0,0"
             style="fill:#ffffff;fill-opacity:1;fill-rule:nonzero;stroke:none"
             id="path140" />
        </g>
        <g
           id="g142"
           transform="translate(64.874,149.5871)">
          <path
             d="m 0,0 h 26.2 c 0.423,0 0.766,0.344 0.766,0.767 v 0.924 c 0,0.423 -0.343,0.766 -0.766,0.766 H 0 c -0.423,0 -0.766,-0.343 -0.766,-0.766 V 0.767 C -0.766,0.344 -0.423,0 0,0"
             style="fill:#f08021;fill-opacity:1;fill-rule:nonzero;stroke:none"
             id="path144" />
        </g>
        <g
           id="g146"
           transform="translate(64.874,174.5753)">
          <path
             d="m 0,0 h 26.2 c 0.423,0 0.766,0.343 0.766,0.766 V 1.69 c 0,0.424 -0.343,0.767 -0.766,0.767 H 0 c -0.423,0 -0.766,-0.343 -0.766,-0.767 V 0.766 C -0.766,0.343 -0.423,0 0,0"
             style="fill:#f08021;fill-opacity:1;fill-rule:nonzero;stroke:none"
             id="path148" />
        </g>
        <g
           id="g150"
           transform="translate(54.3726,162.6593)">
          <path
             d="m 0,0 c 0,-2.22 1.799,-4.019 4.018,-4.019 2.219,0 4.018,1.799 4.018,4.019 0,2.219 -1.799,4.018 -4.018,4.018 C 1.799,4.018 0,2.219 0,0"
             style="fill:#ffffff;fill-opacity:1;fill-rule:nonzero;stroke:none"
             id="path152" />
        </g>
        <g
           id="g154"
           transform="translate(186.0615,98.8497)">
          <path
             d="m 0,0 c -0.362,-0.596 -0.858,-1.5 -1.49,-2.709 -0.199,-0.56 -0.552,-1.355 -1.057,-2.385 -0.108,-0.162 -0.253,-0.243 -0.433,-0.243 0.017,0 -0.853,0.321 -2.615,0.961 -1.761,0.642 -3.211,0.962 -4.349,0.962 -3.324,0 -4.985,-1.463 -4.985,-4.389 0,-1.626 1.165,-3.044 3.495,-4.254 3.919,-2.041 6.087,-3.215 6.503,-3.521 2.33,-1.862 3.495,-4.372 3.495,-7.533 0,-4.046 -1.599,-7.235 -4.796,-9.565 -2.872,-2.095 -6.404,-3.143 -10.594,-3.143 -1.951,0 -2.999,0.216 -3.143,0.65 -0.073,0.687 -0.235,1.689 -0.488,3.009 -0.145,0.541 -0.37,1.354 -0.677,2.438 -0.054,0.162 -0.081,0.315 -0.081,0.46 0,0.253 0.135,0.379 0.406,0.379 0.434,0 1.098,-0.046 1.991,-0.135 0.895,-0.09 1.568,-0.136 2.019,-0.136 5.599,0 8.4,1.806 8.4,5.42 0,1.77 -1.129,3.304 -3.387,4.605 -4.119,2.348 -6.223,3.568 -6.313,3.659 -2.276,1.842 -3.414,4.316 -3.414,7.424 0,3.359 1.101,6.05 3.305,8.074 2.149,1.951 4.932,2.926 8.346,2.926 1.445,0 3.106,-0.235 4.985,-0.704 C -2.836,1.726 -1.3,1.093 -0.271,0.354 -0.181,0.28 -0.091,0.163 0,0"
             style="fill:#f08021;fill-opacity:1;fill-rule:nonzero;stroke:none"
             id="path156" />
        </g>
        <g
           id="g158"
           transform="translate(231.3911,64.5753)">
          <path
             d="m 0,0 c 0,-0.704 -0.208,-1.057 -0.623,-1.057 -0.271,0 -0.682,0.028 -1.232,0.082 -0.552,0.054 -0.972,0.08 -1.261,0.08 -0.307,0 -0.768,-0.017 -1.382,-0.053 -0.614,-0.037 -1.075,-0.055 -1.381,-0.055 -0.38,0 -0.569,0.425 -0.569,1.274 0,0.831 0.031,2.073 0.095,3.725 0.062,1.653 0.094,2.896 0.094,3.726 0,4.569 -0.018,7.116 -0.054,7.64 -0.145,1.861 -0.524,3.144 -1.138,3.848 -0.704,0.759 -1.96,1.138 -3.766,1.138 -1.138,0 -2.421,-0.542 -3.847,-1.625 -1.482,-1.139 -2.249,-2.259 -2.304,-3.361 -0.072,-1.409 -0.108,-3.982 -0.108,-7.72 0,-0.887 0.036,-2.214 0.108,-3.985 0.072,-1.77 0.109,-3.097 0.109,-3.982 0,-0.487 -0.163,-0.732 -0.488,-0.732 -0.325,0 -0.799,0.028 -1.423,0.082 -0.622,0.054 -1.097,0.08 -1.422,0.08 -0.289,0 -0.714,-0.017 -1.273,-0.053 -0.561,-0.037 -0.986,-0.055 -1.274,-0.055 -0.361,0 -0.542,0.263 -0.542,0.786 0,0.867 0.027,2.173 0.081,3.915 0.055,1.743 0.082,3.048 0.082,3.915 v 6.531 c 0,2.04 -0.244,3.495 -0.732,4.362 -0.687,1.228 -1.996,1.842 -3.929,1.842 -1.137,0 -2.492,-0.479 -4.064,-1.436 -1.734,-1.048 -2.601,-2.104 -2.601,-3.17 V 7.83 c 0,-0.903 0.009,-2.248 0.027,-4.036 0.018,-1.788 0.027,-3.126 0.027,-4.011 0,-0.523 -0.208,-0.786 -0.623,-0.786 h -5.04 c -0.361,0 -0.541,0.245 -0.541,0.732 0,1.463 0.009,3.662 0.027,6.597 0.017,2.937 0.027,5.135 0.027,6.598 0,3.305 -0.352,6.602 -1.057,9.89 -0.054,0.235 -0.081,0.423 -0.081,0.569 0,0.234 0.081,0.37 0.244,0.407 0.667,0.071 1.643,0.206 2.926,0.405 0.596,0.181 1.49,0.379 2.682,0.596 l 0.217,0.028 c 0.217,0 0.42,-0.636 0.61,-1.911 0.189,-1.272 0.356,-1.91 0.501,-1.91 l 1.355,1.192 c 1.065,0.921 2.131,1.654 3.197,2.196 1.535,0.794 3.071,1.192 4.606,1.192 4.155,0 6.801,-1.699 7.939,-5.094 1.119,1.444 2.51,2.636 4.173,3.577 1.77,1.01 3.522,1.517 5.256,1.517 3.341,0 5.653,-0.975 6.936,-2.927 0.921,-1.445 1.382,-3.73 1.382,-6.855 0,-0.596 -0.018,-1.518 -0.054,-2.764 -0.037,-1.246 -0.055,-2.168 -0.055,-2.763 0,-1.138 0.028,-2.849 0.082,-5.135 C -0.027,2.849 0,1.139 0,0"
             style="fill:#f08021;fill-opacity:1;fill-rule:nonzero;stroke:none"
             id="path160" />
        </g>
        <g
           id="g162"
           transform="translate(256.1831,76.7687)">
          <path
             d="m 0,0 c 0,2.222 -0.66,4.127 -1.978,5.716 -1.392,1.717 -3.17,2.575 -5.338,2.575 -2.167,0 -3.974,-0.85 -5.419,-2.547 -1.391,-1.626 -2.086,-3.542 -2.086,-5.744 0,-2.187 0.695,-4.084 2.086,-5.69 1.445,-1.68 3.252,-2.521 5.419,-2.521 2.114,0 3.883,0.858 5.311,2.575 C -0.669,-4.029 0,-2.15 0,0 M 6.909,11.325 C 6.909,11.252 6.882,11.09 6.828,10.838 6.124,6.7 5.771,3.133 5.771,0.135 c 0,-0.181 0.226,-4.237 0.677,-12.165 l 0.028,-0.38 c 0.017,-0.524 -0.222,-0.786 -0.718,-0.786 -0.497,0 -1.246,-0.059 -2.25,-0.176 -1.002,-0.117 -1.747,-0.176 -2.235,-0.176 -0.343,0 -0.606,0.632 -0.785,1.897 -0.181,1.264 -0.353,1.896 -0.515,1.896 -0.109,0 -0.597,-0.352 -1.463,-1.057 -1.067,-0.867 -2.059,-1.526 -2.981,-1.977 -1.427,-0.722 -2.854,-1.084 -4.281,-1.084 -3.504,0 -6.458,1.398 -8.86,4.199 -2.276,2.673 -3.414,5.789 -3.414,9.349 0,4.01 1.147,7.324 3.442,9.942 2.401,2.728 5.563,4.093 9.482,4.093 2.764,0 5.176,-0.958 7.235,-2.872 0.306,-0.362 0.785,-0.887 1.436,-1.571 0.054,-0.055 0.108,-0.082 0.162,-0.082 0.109,0 0.262,0.569 0.461,1.707 0.199,1.138 0.451,1.706 0.759,1.706 0.487,0 1.399,-0.135 2.736,-0.406 1.481,-0.325 2.222,-0.615 2.222,-0.867"
             style="fill:#f08021;fill-opacity:1;fill-rule:nonzero;stroke:none"
             id="path164" />
        </g>
        <g
           id="g166"
           transform="translate(283.0068,89.0148)">
          <path
             d="m 0,0 c 0,-1.987 -0.135,-3.793 -0.406,-5.419 -0.054,-0.415 -0.236,-0.623 -0.542,-0.623 -0.38,0 -0.953,0.041 -1.72,0.121 -0.769,0.082 -1.352,0.123 -1.749,0.123 -2.275,0 -3.73,-0.641 -4.362,-1.925 -0.379,-0.775 -0.569,-2.392 -0.569,-4.848 v -2.981 c 0,-1.012 0.04,-2.547 0.122,-4.606 0.081,-2.059 0.122,-3.596 0.122,-4.607 0,-0.487 -0.208,-0.731 -0.623,-0.731 -0.56,0 -1.409,0.01 -2.547,0.027 -1.138,0.018 -1.987,0.027 -2.547,0.027 -0.416,0 -0.623,0.225 -0.623,0.677 0,1.464 0.023,3.666 0.068,6.612 0.045,2.944 0.067,5.157 0.067,6.637 0,4.461 -0.416,8.048 -1.246,10.758 -0.036,0.144 -0.054,0.252 -0.054,0.325 0,0.217 0.117,0.37 0.352,0.459 0.668,0.073 1.608,0.181 2.818,0.326 1.951,0.362 2.854,0.542 2.71,0.542 0.288,0 0.478,-0.534 0.568,-1.598 0.091,-1.067 0.253,-1.6 0.488,-1.6 0.036,0 0.082,0.018 0.135,0.055 0.741,0.47 1.481,0.938 2.223,1.409 0.812,0.487 1.643,0.849 2.492,1.083 0.705,0.217 1.608,0.325 2.71,0.325 C -0.705,0.568 0,0.38 0,0"
             style="fill:#f08021;fill-opacity:1;fill-rule:nonzero;stroke:none"
             id="path168" />
        </g>
        <g
           id="g170"
           transform="translate(301.0791,68.5578)">
          <path
             d="m 0,0 c 0,-0.396 -0.037,-0.938 -0.108,-1.626 -0.091,-0.849 -0.145,-1.399 -0.163,-1.651 -0.018,-0.326 -0.045,-0.525 -0.081,-0.597 -0.073,-0.127 -0.244,-0.253 -0.515,-0.379 -1.482,-0.704 -3.812,-1.058 -6.99,-1.058 -4.227,0 -6.341,1.915 -6.341,5.745 0,1.535 0.036,3.842 0.109,6.922 0.071,3.081 0.108,5.387 0.108,6.924 0,0.74 -0.371,1.138 -1.111,1.192 -0.668,0 -1.327,0.008 -1.978,0.026 -0.379,0.091 -0.569,0.831 -0.569,2.222 0,0.524 0.036,1.075 0.109,1.654 0.054,0.434 0.343,0.694 0.867,0.785 0.451,0 0.894,0.009 1.328,0.028 0.83,0.035 1.246,0.405 1.246,1.11 0,0.722 -0.023,1.825 -0.068,3.306 -0.045,1.48 -0.068,2.591 -0.068,3.333 0,1.318 0.253,1.977 0.759,1.977 0.162,0 1.86,-0.28 5.094,-0.84 0.415,-0.053 0.623,-0.253 0.623,-0.595 0,-0.795 -0.059,-1.988 -0.177,-3.577 -0.117,-1.59 -0.176,-2.783 -0.176,-3.577 0,-0.524 0.245,-0.786 0.732,-0.786 h 6.503 c 0.307,0 0.461,-0.108 0.461,-0.325 0,-0.217 -0.032,-0.564 -0.095,-1.043 -0.063,-0.479 -0.095,-0.836 -0.095,-1.07 0,-0.272 0.009,-0.687 0.027,-1.246 0.018,-0.56 0.027,-0.976 0.027,-1.248 0,-0.342 -0.253,-0.513 -0.759,-0.513 -0.722,0 -1.815,0.05 -3.278,0.147 -1.463,0.1 -2.556,0.15 -3.278,0.15 -0.145,0 -0.254,-0.514 -0.326,-1.543 -0.09,-1.284 -0.135,-3.08 -0.135,-5.393 V 4.417 c 0,-1.554 0.144,-2.638 0.433,-3.251 0.434,-0.94 1.328,-1.409 2.683,-1.409 0.559,0 1.382,0.122 2.465,0.365 1.084,0.244 1.887,0.366 2.412,0.366 C -0.108,0.488 0,0.325 0,0"
             style="fill:#f08021;fill-opacity:1;fill-rule:nonzero;stroke:none"
             id="path172" />
        </g>
        <g
           id="g174"
           transform="translate(344.4307,69.4533)">
          <path
             d="m 0,0 c 0,-2.53 -0.135,-4.327 -0.406,-5.393 -0.127,-0.523 -0.443,-0.785 -0.948,-0.785 -1.338,0 -3.343,0.076 -6.016,0.23 -2.673,0.154 -4.678,0.23 -6.015,0.23 -1.264,0 -3.152,-0.026 -5.662,-0.081 -2.512,-0.054 -4.399,-0.082 -5.663,-0.082 -0.452,0 -0.678,0.226 -0.678,0.678 0,1.969 0.068,4.94 0.204,8.914 0.135,3.974 0.203,6.954 0.203,8.941 0,2.096 -0.095,5.235 -0.285,9.416 -0.189,4.181 -0.284,7.32 -0.284,9.415 0,0.398 0.225,0.597 0.677,0.597 0.325,0 0.822,-0.027 1.49,-0.082 0.668,-0.055 1.174,-0.081 1.518,-0.081 0.325,0 0.83,0.026 1.517,0.081 0.686,0.055 1.192,0.082 1.517,0.082 0.434,0 0.65,-0.173 0.65,-0.516 0,-1.914 -0.072,-4.794 -0.216,-8.642 -0.145,-3.848 -0.217,-6.738 -0.217,-8.671 v -4.28 c -0.018,-1.916 -0.027,-3.343 -0.027,-4.282 0,-4.009 0.162,-6.014 0.488,-6.014 6.665,0 11.695,0.162 15.091,0.487 0.163,0.018 0.578,0.08 1.247,0.189 0.542,0.108 0.957,0.163 1.246,0.163 C -0.189,0.514 0,0.342 0,0"
             style="fill:#f08021;fill-opacity:1;fill-rule:nonzero;stroke:none"
             id="path176" />
        </g>
        <g
           id="g178"
           transform="translate(366.3506,76.714)">
          <path
             d="m 0,0 c 0,2.203 -0.677,4.082 -2.032,5.636 -1.409,1.643 -3.197,2.465 -5.365,2.465 -2.167,0 -3.965,-0.813 -5.392,-2.439 -1.355,-1.571 -2.032,-3.459 -2.032,-5.662 0,-2.167 0.686,-4.047 2.059,-5.636 1.445,-1.679 3.233,-2.52 5.365,-2.52 2.149,0 3.938,0.841 5.365,2.52 C -0.677,-4.047 0,-2.167 0,0 m 5.717,0.055 c 0,-3.777 -1.238,-7.001 -3.712,-9.674 -2.529,-2.764 -5.663,-4.145 -9.402,-4.145 -3.757,0 -6.9,1.372 -9.429,4.118 -2.475,2.656 -3.712,5.871 -3.712,9.646 0,3.774 1.237,6.99 3.712,9.646 2.547,2.709 5.69,4.064 9.429,4.064 3.721,0 6.846,-1.355 9.375,-4.064 C 4.471,7.008 5.717,3.812 5.717,0.055"
             style="fill:#f08021;fill-opacity:1;fill-rule:nonzero;stroke:none"
             id="path180" />
        </g>
        <g
           id="g182"
           transform="translate(394.8003,88.1486)">
          <path
             d="m 0,0 c 0,-0.398 -0.208,-1.283 -0.624,-2.655 -0.416,-1.374 -0.704,-2.06 -0.866,-2.06 -0.813,0.361 -1.631,0.722 -2.453,1.084 -0.822,0.36 -1.72,0.542 -2.696,0.542 -2.221,0 -4.073,-0.823 -5.554,-2.467 -1.481,-1.643 -2.222,-3.585 -2.222,-5.824 0,-2.204 0.741,-4.11 2.222,-5.718 1.517,-1.662 3.369,-2.493 5.554,-2.493 1.21,0 2.403,0.299 3.577,0.896 1.174,0.595 1.689,0.892 1.544,0.892 0.235,0 0.497,-0.758 0.786,-2.275 0.271,-1.372 0.407,-2.321 0.407,-2.845 0,-0.56 -1.057,-1.111 -3.171,-1.653 -1.77,-0.451 -3.08,-0.677 -3.928,-0.677 -3.722,0 -6.865,1.39 -9.429,4.173 -2.511,2.709 -3.766,5.941 -3.766,9.7 0,3.828 1.228,7.079 3.684,9.754 2.529,2.744 5.681,4.118 9.456,4.118 2.529,0 4.841,-0.641 6.937,-1.924 C -0.181,0.352 0,0.162 0,0"
             style="fill:#f08021;fill-opacity:1;fill-rule:nonzero;stroke:none"
             id="path184" />
        </g>
        <g
           id="g186"
           transform="translate(418.2915,80.8869)">
          <path
             d="m 0,0 c 0,2.582 -1.671,3.874 -5.013,3.874 -2.492,0 -5.301,-1.662 -8.426,-4.985 v -4.037 c 1.463,-0.271 3.233,-0.408 5.311,-0.408 2.094,0 3.883,0.398 5.364,1.193 C -0.921,-3.37 0,-1.916 0,0 m 6.53,1.272 c 0,-4.696 -2.178,-7.839 -6.53,-9.428 0,-0.921 1.806,-3.793 5.418,-8.616 0,-0.271 -0.903,-0.452 -2.709,-0.542 -1.192,-0.054 -2.086,-0.081 -2.682,-0.081 -1.283,0 -2.087,0.271 -2.412,0.813 -0.849,1.444 -2.185,3.549 -4.01,6.312 -0.216,0.326 -2.177,0.461 -5.879,0.408 l -1.057,-0.029 v -6.691 c 0,-0.561 -0.199,-0.841 -0.596,-0.841 -0.578,0 -1.431,0.011 -2.56,0.028 -1.129,0.018 -1.983,0.027 -2.561,0.027 -0.397,0 -0.596,0.352 -0.596,1.056 V 0.542 c 0,2.202 -0.085,5.499 -0.257,9.889 -0.172,4.389 -0.258,7.686 -0.258,9.89 0,0.325 0.172,0.505 0.515,0.542 0.596,0.018 1.499,0.054 2.709,0.109 0.253,0.017 0.786,0.081 1.599,0.189 0.65,0.09 1.174,0.136 1.572,0.136 0.252,0 0.379,-0.217 0.379,-0.651 0,-0.975 -0.046,-2.429 -0.136,-4.363 -0.09,-1.933 -0.135,-3.386 -0.135,-4.361 v -6.99 c 0,-0.38 0.081,-0.571 0.244,-0.571 0.433,0.363 1.084,0.896 1.951,1.6 3.034,2.348 5.924,3.522 8.67,3.522 2.673,0 4.859,-0.687 6.557,-2.059 1.843,-1.5 2.764,-3.55 2.764,-6.152"
             style="fill:#f08021;fill-opacity:1;fill-rule:nonzero;stroke:none"
             id="path188" />
        </g>
        <g
           id="g190"
           transform="translate(445.0342,79.7755)">
          <path
             d="m 0,0 c 0,1.499 -0.594,2.826 -1.775,3.983 -1.184,1.156 -2.517,1.735 -3.997,1.735 -1.663,0 -3.139,-0.67 -4.43,-2.006 -1.291,-1.337 -1.937,-2.836 -1.937,-4.497 0,-0.38 0.326,-0.57 0.976,-0.57 2.673,0 5.87,0.271 9.59,0.813 C -0.524,-0.397 0,-0.217 0,0 m 6.447,-1.652 c 0,-1.337 -0.577,-2.233 -1.734,-2.684 -0.776,-0.288 -6.367,-0.821 -16.772,-1.598 0.235,-1.589 1.113,-2.945 2.629,-4.064 1.445,-1.065 2.998,-1.599 4.659,-1.599 2.855,0 5.474,0.921 7.858,2.764 0.29,0.234 0.579,0.47 0.867,0.704 0.145,0 0.24,-0.017 0.285,-0.054 0.044,-0.037 0.384,-0.664 1.016,-1.883 0.633,-1.219 0.949,-1.873 0.949,-1.964 0,-0.109 -0.145,-0.317 -0.433,-0.623 -2.656,-2.818 -6.061,-4.227 -10.216,-4.227 -4.191,0 -7.532,1.251 -10.024,3.753 -2.493,2.501 -3.739,5.839 -3.739,10.012 0,3.719 1.192,6.962 3.576,9.725 2.511,2.872 5.591,4.31 9.239,4.31 3.397,0 6.232,-1.247 8.508,-3.739 C 5.337,4.76 6.447,1.815 6.447,-1.652"
             style="fill:#f08021;fill-opacity:1;fill-rule:nonzero;stroke:none"
             id="path192" />
        </g>
        <g
           id="g194"
           transform="translate(470.7725,89.0148)">
          <path
             d="m 0,0 c 0,-1.987 -0.136,-3.793 -0.405,-5.419 -0.056,-0.415 -0.237,-0.623 -0.542,-0.623 -0.381,0 -0.954,0.041 -1.721,0.121 -0.77,0.082 -1.351,0.123 -1.748,0.123 -2.275,0 -3.73,-0.641 -4.362,-1.925 -0.38,-0.775 -0.571,-2.392 -0.571,-4.848 v -2.981 c 0,-1.012 0.041,-2.547 0.123,-4.606 0.081,-2.059 0.122,-3.596 0.122,-4.607 0,-0.487 -0.208,-0.731 -0.623,-0.731 -0.56,0 -1.408,0.01 -2.547,0.027 -1.137,0.018 -1.987,0.027 -2.546,0.027 -0.416,0 -0.624,0.225 -0.624,0.677 0,1.464 0.022,3.666 0.067,6.612 0.046,2.944 0.067,5.157 0.067,6.637 0,4.461 -0.414,8.048 -1.244,10.758 -0.037,0.144 -0.055,0.252 -0.055,0.325 0,0.217 0.118,0.37 0.352,0.459 0.668,0.073 1.609,0.181 2.818,0.326 1.951,0.362 2.854,0.542 2.71,0.542 0.288,0 0.478,-0.534 0.569,-1.598 0.09,-1.067 0.252,-1.6 0.486,-1.6 0.037,0 0.082,0.018 0.137,0.055 0.741,0.47 1.48,0.938 2.222,1.409 0.812,0.487 1.643,0.849 2.492,1.083 0.705,0.217 1.608,0.325 2.71,0.325 C -0.704,0.568 0,0.38 0,0"
             style="fill:#f08021;fill-opacity:1;fill-rule:nonzero;stroke:none"
             id="path196" />
        </g>
        <g
           id="g198"
           transform="translate(509.3838,98.8497)">
          <path
             d="m 0,0 c -0.36,-0.596 -0.857,-1.5 -1.49,-2.709 -0.199,-0.56 -0.551,-1.355 -1.056,-2.385 -0.108,-0.162 -0.253,-0.243 -0.433,-0.243 0.017,0 -0.854,0.321 -2.616,0.961 -1.76,0.642 -3.211,0.962 -4.348,0.962 -3.324,0 -4.986,-1.463 -4.986,-4.389 0,-1.626 1.164,-3.044 3.496,-4.254 3.919,-2.041 6.087,-3.215 6.502,-3.521 2.329,-1.862 3.495,-4.372 3.495,-7.533 0,-4.046 -1.599,-7.235 -4.794,-9.565 -2.874,-2.095 -6.406,-3.143 -10.595,-3.143 -1.951,0 -2.998,0.216 -3.144,0.65 -0.071,0.687 -0.234,1.689 -0.487,3.009 -0.146,0.541 -0.371,1.354 -0.679,2.438 -0.052,0.162 -0.08,0.315 -0.08,0.46 0,0.253 0.136,0.379 0.405,0.379 0.434,0 1.099,-0.046 1.993,-0.135 0.894,-0.09 1.567,-0.136 2.018,-0.136 5.601,0 8.401,1.806 8.401,5.42 0,1.77 -1.129,3.304 -3.388,4.605 -4.118,2.348 -6.223,3.568 -6.314,3.659 -2.276,1.842 -3.413,4.316 -3.413,7.424 0,3.359 1.102,6.05 3.305,8.074 2.149,1.951 4.933,2.926 8.345,2.926 1.446,0 3.108,-0.235 4.985,-0.704 C -2.836,1.726 -1.301,1.093 -0.27,0.354 -0.181,0.28 -0.09,0.163 0,0"
             style="fill:#f08021;fill-opacity:1;fill-rule:nonzero;stroke:none"
             id="path200" />
        </g>
        <g
           id="g202"
           transform="translate(532.3594,76.714)">
          <path
             d="m 0,0 c 0,2.203 -0.676,4.082 -2.031,5.636 -1.408,1.643 -3.198,2.465 -5.365,2.465 -2.167,0 -3.964,-0.813 -5.392,-2.439 -1.354,-1.571 -2.031,-3.459 -2.031,-5.662 0,-2.167 0.686,-4.047 2.058,-5.636 1.446,-1.679 3.235,-2.52 5.365,-2.52 2.15,0 3.939,0.841 5.365,2.52 C -0.676,-4.047 0,-2.167 0,0 m 5.718,0.055 c 0,-3.777 -1.238,-7.001 -3.711,-9.674 -2.529,-2.764 -5.663,-4.145 -9.403,-4.145 -3.756,0 -6.9,1.372 -9.429,4.118 -2.475,2.656 -3.711,5.871 -3.711,9.646 0,3.774 1.236,6.99 3.711,9.646 2.547,2.709 5.69,4.064 9.429,4.064 3.722,0 6.845,-1.355 9.375,-4.064 C 4.472,7.008 5.718,3.812 5.718,0.055"
             style="fill:#f08021;fill-opacity:1;fill-rule:nonzero;stroke:none"
             id="path204" />
        </g>
        <g
           id="g206"
           transform="translate(548.7529,101.1535)">
          <path
             d="m 0,0 -0.028,-0.353 c -0.397,-6.719 -0.596,-12.49 -0.596,-17.313 0,-2.149 0.037,-5.369 0.108,-9.66 0.073,-4.289 0.109,-7.5 0.109,-9.631 0,-0.416 -0.145,-0.624 -0.434,-0.624 h -5.176 c -0.325,0 -0.486,0.208 -0.486,0.624 0,2.131 0.018,5.342 0.053,9.631 0.037,4.291 0.055,7.511 0.055,9.66 0,1.951 -0.094,4.882 -0.285,8.792 -0.189,3.911 -0.284,6.833 -0.284,8.766 0,0.36 0.189,0.542 0.569,0.542 0.326,0 0.812,-0.028 1.462,-0.081 0.651,-0.055 1.14,-0.082 1.465,-0.082 0.342,0 0.848,0.027 1.517,0.082 0.668,0.053 1.165,0.081 1.49,0.081 C -0.137,0.434 0.018,0.289 0,0"
             style="fill:#f08021;fill-opacity:1;fill-rule:nonzero;stroke:none"
             id="path208" />
        </g>
        <g
           id="g210"
           transform="translate(579.2061,88.1486)">
          <path
             d="m 0,0 c 0,-1.32 -0.055,-3.311 -0.163,-5.976 -0.108,-2.664 -0.162,-4.665 -0.162,-6.001 0,-1.319 0.041,-3.292 0.121,-5.92 0.082,-2.628 0.122,-4.602 0.122,-5.92 0,-0.362 -0.172,-0.596 -0.514,-0.704 -0.145,-0.038 -1.979,-0.055 -5.5,-0.055 -0.216,0 -0.348,0.678 -0.393,2.033 -0.046,1.355 -0.149,2.031 -0.313,2.031 -0.089,0 -0.225,-0.081 -0.405,-0.243 -3.018,-2.62 -5.998,-3.93 -8.941,-3.93 -3.993,0 -6.629,1.446 -7.913,4.335 -0.794,1.789 -1.192,5.003 -1.192,9.647 0,4.189 0.334,7.74 1.002,10.648 0.164,0.705 0.462,1.056 0.896,1.056 0.524,0 1.308,-0.009 2.356,-0.026 1.049,-0.019 1.833,-0.028 2.357,-0.028 0.363,0 0.542,-0.199 0.542,-0.595 0,-0.706 -0.117,-1.88 -0.351,-3.523 -0.253,-1.752 -0.39,-2.989 -0.407,-3.712 -0.054,-1.083 -0.082,-2.275 -0.082,-3.576 0,-3.162 0.227,-5.284 0.678,-6.368 0.777,-1.95 2.501,-2.926 5.174,-2.926 1.14,0 2.484,0.56 4.038,1.68 1.644,1.175 2.493,2.303 2.547,3.387 0.091,1.355 0.135,6.123 0.135,14.306 0,0.885 0.371,1.327 1.111,1.327 h 4.472 C -0.263,0.947 0,0.631 0,0"
             style="fill:#f08021;fill-opacity:1;fill-rule:nonzero;stroke:none"
             id="path212" />
        </g>
        <g
           id="g214"
           transform="translate(599.8271,68.5578)">
          <path
             d="m 0,0 c 0,-0.396 -0.036,-0.938 -0.108,-1.626 -0.091,-0.849 -0.145,-1.399 -0.164,-1.651 -0.018,-0.326 -0.044,-0.525 -0.081,-0.597 -0.072,-0.127 -0.245,-0.253 -0.514,-0.379 -1.482,-0.704 -3.812,-1.058 -6.991,-1.058 -4.228,0 -6.339,1.915 -6.339,5.745 0,1.535 0.035,3.842 0.108,6.922 0.071,3.081 0.109,5.387 0.109,6.924 0,0.74 -0.372,1.138 -1.113,1.192 -0.667,0 -1.328,0.008 -1.978,0.026 -0.378,0.091 -0.569,0.831 -0.569,2.222 0,0.524 0.037,1.075 0.109,1.654 0.054,0.434 0.343,0.694 0.867,0.785 0.451,0 0.893,0.009 1.327,0.028 0.832,0.035 1.248,0.405 1.248,1.11 0,0.722 -0.023,1.825 -0.069,3.306 -0.045,1.48 -0.068,2.591 -0.068,3.333 0,1.318 0.254,1.977 0.759,1.977 0.163,0 1.861,-0.28 5.094,-0.84 0.416,-0.053 0.623,-0.253 0.623,-0.595 0,-0.795 -0.059,-1.988 -0.176,-3.577 -0.117,-1.59 -0.176,-2.783 -0.176,-3.577 0,-0.524 0.244,-0.786 0.733,-0.786 h 6.502 c 0.306,0 0.46,-0.108 0.46,-0.325 0,-0.217 -0.032,-0.564 -0.095,-1.043 -0.063,-0.479 -0.096,-0.836 -0.096,-1.07 0,-0.272 0.011,-0.687 0.029,-1.246 0.017,-0.56 0.027,-0.976 0.027,-1.248 0,-0.342 -0.253,-0.513 -0.759,-0.513 -0.722,0 -1.815,0.05 -3.278,0.147 -1.464,0.1 -2.557,0.15 -3.279,0.15 -0.144,0 -0.252,-0.514 -0.326,-1.543 -0.089,-1.284 -0.134,-3.08 -0.134,-5.393 V 4.417 c 0,-1.554 0.144,-2.638 0.433,-3.251 0.434,-0.94 1.326,-1.409 2.683,-1.409 0.559,0 1.381,0.122 2.465,0.365 1.084,0.244 1.887,0.366 2.412,0.366 C -0.108,0.488 0,0.325 0,0"
             style="fill:#f08021;fill-opacity:1;fill-rule:nonzero;stroke:none"
             id="path216" />
        </g>
        <g
           id="g218"
           transform="translate(610.5566,88.6359)">
          <path
             d="m 0,0 c 0,-1.392 -0.086,-3.491 -0.258,-6.301 -0.173,-2.807 -0.258,-4.916 -0.258,-6.325 0,-1.319 0.027,-3.293 0.082,-5.922 0.053,-2.627 0.081,-4.591 0.081,-5.891 0,-0.379 -0.163,-0.57 -0.488,-0.57 h -5.284 c -0.378,0 -0.568,0.37 -0.568,1.112 0,1.246 0.031,3.119 0.095,5.621 0.063,2.503 0.095,4.384 0.095,5.65 0,1.409 -0.105,3.522 -0.311,6.34 -0.208,2.818 -0.312,4.932 -0.312,6.341 0,0.305 0.19,0.459 0.567,0.459 0.326,0 0.829,-0.045 1.505,-0.135 0.678,-0.09 1.188,-0.136 1.531,-0.136 0.343,0 0.853,0.046 1.532,0.136 0.676,0.09 1.187,0.135 1.53,0.135 C -0.153,0.514 0,0.343 0,0 m 0.189,7.342 c 0,-2.222 -1.238,-3.332 -3.712,-3.332 -2.511,0 -3.766,1.11 -3.766,3.332 0,0.993 0.388,1.816 1.164,2.467 0.724,0.613 1.591,0.92 2.602,0.92 1.011,0 1.883,-0.316 2.615,-0.949 0.731,-0.633 1.097,-1.445 1.097,-2.438"
             style="fill:#f08021;fill-opacity:1;fill-rule:nonzero;stroke:none"
             id="path220" />
        </g>
        <g
           id="g222"
           transform="translate(634.75,76.714)">
          <path
             d="m 0,0 c 0,2.203 -0.677,4.082 -2.031,5.636 -1.409,1.643 -3.198,2.465 -5.365,2.465 -2.167,0 -3.964,-0.813 -5.392,-2.439 -1.354,-1.571 -2.031,-3.459 -2.031,-5.662 0,-2.167 0.686,-4.047 2.058,-5.636 1.446,-1.679 3.235,-2.52 5.365,-2.52 2.15,0 3.938,0.841 5.365,2.52 C -0.677,-4.047 0,-2.167 0,0 m 5.718,0.055 c 0,-3.777 -1.238,-7.001 -3.711,-9.674 -2.529,-2.764 -5.663,-4.145 -9.403,-4.145 -3.756,0 -6.9,1.372 -9.429,4.118 -2.475,2.656 -3.711,5.871 -3.711,9.646 0,3.774 1.236,6.99 3.711,9.646 2.547,2.709 5.69,4.064 9.429,4.064 3.722,0 6.845,-1.355 9.375,-4.064 C 4.472,7.008 5.718,3.812 5.718,0.055"
             style="fill:#f08021;fill-opacity:1;fill-rule:nonzero;stroke:none"
             id="path224" />
        </g>
        <g
           id="g226"
           transform="translate(668.1592,64.1144)">
          <path
             d="m 0,0 c 0,-0.396 -0.182,-0.596 -0.542,-0.596 -0.598,0 -1.486,0.01 -2.67,0.028 -1.184,0.017 -2.072,0.026 -2.669,0.026 -0.325,0 -0.487,0.263 -0.487,0.786 0,0.885 0.026,2.232 0.082,4.037 0.053,1.806 0.08,3.16 0.08,4.064 0,0.722 -0.009,1.801 -0.027,3.238 -0.018,1.436 -0.027,2.515 -0.027,3.238 0,2.06 -0.299,3.513 -0.893,4.363 -0.724,1.011 -2.06,1.516 -4.01,1.516 -0.903,0 -2.159,-0.505 -3.767,-1.516 -1.698,-1.067 -2.548,-2.015 -2.548,-2.845 V 0.082 c 0,-0.452 -0.17,-0.678 -0.513,-0.678 -0.578,0 -1.446,0.01 -2.601,0.028 -1.157,0.017 -2.024,0.026 -2.601,0.026 -0.381,0 -0.57,0.208 -0.57,0.624 0,1.427 0.022,3.566 0.068,6.421 0.045,2.854 0.068,5.003 0.068,6.448 0,3.848 -0.407,7.398 -1.22,10.65 -0.054,0.162 -0.081,0.279 -0.081,0.351 0,0.18 0.117,0.308 0.352,0.379 0.126,0.018 1.16,0.187 3.102,0.501 1.942,0.316 2.958,0.475 3.049,0.475 0.109,0 0.181,-0.146 0.217,-0.434 0.09,-1.12 0.298,-2.248 0.623,-3.386 0.939,0.74 2.176,1.66 3.712,2.764 1.895,1.155 3.729,1.733 5.5,1.733 3.396,0 5.716,-0.985 6.964,-2.954 0.92,-1.445 1.381,-3.784 1.381,-7.016 0,-0.561 -0.013,-1.419 -0.041,-2.575 -0.027,-1.156 -0.039,-2.023 -0.039,-2.601 0,-1.21 0.017,-3.017 0.052,-5.419 C -0.02,3.017 0,1.21 0,0"
             style="fill:#f08021;fill-opacity:1;fill-rule:nonzero;stroke:none"
             id="path228" />
        </g>
        <g
           id="g230"
           transform="translate(685.9873,71.9181)">
          <path
             d="m 0,0 c 0,-2.692 -1.075,-4.85 -3.224,-6.476 -1.95,-1.481 -4.326,-2.221 -7.127,-2.221 -1.083,0 -1.697,0.026 -1.841,0.081 -0.308,0.144 -0.46,0.587 -0.46,1.328 0,0.396 -0.052,0.993 -0.15,1.788 -0.099,0.794 -0.149,1.381 -0.149,1.761 0,0.234 0.162,0.387 0.487,0.461 0.235,0.054 0.57,0.054 1.004,0 0.56,-0.054 0.83,-0.082 0.812,-0.082 3.415,0 5.121,1.047 5.121,3.143 0,0.992 -0.75,1.905 -2.248,2.738 -2.441,1.334 -3.839,2.157 -4.201,2.464 -1.5,1.283 -2.25,2.963 -2.25,5.039 0,2.71 1.021,4.824 3.063,6.341 1.843,1.355 4.173,2.032 6.99,2.032 0.254,0 0.439,-0.118 0.556,-0.352 0.117,-0.234 0.343,-0.967 0.678,-2.194 0.334,-1.229 0.501,-1.97 0.501,-2.222 0,-0.199 -0.171,-0.325 -0.516,-0.379 -1.155,-0.163 -2.319,-0.316 -3.494,-0.462 -1.392,-0.379 -2.086,-1.138 -2.086,-2.275 0,-0.814 0.731,-1.635 2.194,-2.465 C -4.173,6.836 -2.8,5.961 -2.222,5.419 -0.741,4.01 0,2.204 0,0"
             style="fill:#f08021;fill-opacity:1;fill-rule:nonzero;stroke:none"
             id="path232" />
        </g>
      </g>
    </g>
  </g>
</svg>
