<svg width="134" height="65" viewBox="0 0 134 65" fill="none" xmlns="http://www.w3.org/2000/svg">
<g clip-path="url(#clip0_3_31)">
<mask id="mask0_3_31" style="mask-type:luminance" maskUnits="userSpaceOnUse" x="0" y="0" width="134" height="65">
<path d="M0 0H134V65H0V0Z" fill="white"/>
</mask>
<g mask="url(#mask0_3_31)">
<path d="M89.1154 28.5291C87.9287 28.5291 86.9665 27.5654 86.9665 26.3768C86.9665 25.1881 87.9287 24.2244 89.1154 24.2244C90.3023 24.2244 91.2645 25.1881 91.2645 26.3768C91.2645 27.5654 90.3023 28.5291 89.1154 28.5291ZM88.5896 21.1291C86.2197 21.392 84.3156 23.3105 84.0656 25.6856C83.8146 28.0717 85.1934 30.1694 87.2233 31.0055V35.6027C87.2233 36.7787 87.7792 37.3355 88.9534 37.3355L91.9411 37.7318L91.0998 31.0164C92.9849 30.2533 94.3163 28.4062 94.3163 26.2445C94.3163 23.2079 91.6912 20.7853 88.5896 21.1291Z" fill="#F08021"/>
<path d="M89.7056 37.6726C90.4687 38.0097 91.2335 38.3429 91.9941 38.6853C92.6526 38.9815 93.317 39.2682 93.9535 39.6066C94.0178 39.6407 94.0558 39.7239 94.0862 39.8216C94.1422 40.0007 94.0488 40.1959 93.8729 40.2602C93.786 40.2919 93.7066 40.309 93.6504 40.2803C91.7479 39.309 89.5409 38.9007 88.0053 37.2465C87.827 37.0545 87.6047 36.8926 87.4687 36.6755C87.4229 36.6021 87.3893 36.5212 87.3616 36.4367C87.2841 36.2007 87.4737 35.9637 87.7213 35.9734C87.7982 35.9764 87.8713 35.9882 87.937 36.0166C90.7741 37.2438 93.6604 37.3692 96.52 36.2211C100.816 34.4963 103.142 31.202 103.758 26.6551C104.654 20.0471 100.288 12.5628 91.7256 11.3199C88.6876 10.8788 85.7496 11.1852 82.8778 12.2564C82.8534 12.2655 82.8281 12.2717 82.8018 12.2756C82.494 12.3216 82.2914 11.9233 82.5028 11.6947C82.5373 11.6572 82.575 11.6267 82.6178 11.6062C84.5426 10.6837 86.6041 10.35 88.7158 10.3286C93.2517 10.2827 97.2951 11.5625 100.556 14.8638C104.937 19.2988 105.944 26.4815 102.933 31.7545C100.392 36.2052 95.1768 38.576 90.1527 37.5661C90.0256 37.5406 89.8952 37.5299 89.7666 37.5124C89.7462 37.5658 89.7259 37.6192 89.7056 37.6726Z" fill="#F08021"/>
<path d="M89.0503 18.3653C89.0732 18.365 89.096 18.3665 89.1186 18.3696C89.8816 18.4811 90.6505 18.5646 91.4026 18.7269C91.4249 18.7317 91.4464 18.7396 91.4674 18.7502C91.7981 18.9159 91.6687 19.4594 91.2988 19.4688C91.2733 19.4694 91.2485 19.4675 91.224 19.4624C88.0182 18.7946 85.1886 19.5439 82.7499 21.7133C80.9503 23.314 80.0631 25.4108 79.7052 27.7438C78.5369 35.3575 82.6997 42.2033 90.0067 44.705C90.6128 44.9124 91.0451 45.2346 91.0897 45.9175C91.1425 46.7246 90.5983 47.3423 89.8097 47.2103C89.0466 47.0828 88.2864 46.8343 87.5734 46.5268C84.3012 45.1161 81.7097 42.8834 79.7602 39.8996C79.5876 39.6353 79.3978 39.3369 79.7618 39.1206C80.1219 38.9065 80.2912 39.2272 80.4612 39.4856C82.5951 42.7303 85.4886 45.0048 89.155 46.2793C89.5206 46.4064 90.026 46.7506 90.2397 46.1496C90.4597 45.5306 89.8367 45.5255 89.4767 45.3892C83.3795 43.0818 79.8078 38.7072 78.831 32.2561C78.4473 29.7208 78.7287 27.2209 79.6671 24.8249C81.183 20.9539 84.8894 18.4465 89.0503 18.3653Z" fill="#2064AF"/>
<path d="M77.642 30.1775C77.6388 30.2006 77.6379 30.224 77.6387 30.2475C77.7122 32.4152 78.1373 34.4834 78.9187 36.4844C78.9554 36.5783 79.0369 36.6787 79.0229 36.7636C79.0135 36.8201 79.0011 36.8762 78.9866 36.932C78.9182 37.1969 78.59 37.3261 78.3754 37.1564C78.3423 37.1303 78.3175 37.101 78.3043 37.0672C77.9901 36.2623 77.6757 35.4488 77.4715 34.6114C76.4882 30.5767 76.7053 26.6271 78.6263 22.8971C81.3329 17.6409 88.0274 15.2314 93.4015 17.4987C97.2464 19.1211 99.271 23.6062 97.9191 27.5438C97.4276 28.976 96.5108 30.0734 95.1558 30.7621C95.1093 30.7855 95.0542 30.7919 94.9941 30.7881C94.6977 30.7691 94.5062 30.4361 94.6678 30.1867C94.6921 30.1491 94.7205 30.1193 94.755 30.1011C97.5348 28.6476 97.8896 25.3326 97.2754 23.1507C96.3783 19.9644 94.1922 18.1661 90.9826 17.6432C84.8385 16.6424 79.4122 20.4453 78.1365 26.6282C77.8957 27.7956 77.8018 28.9932 77.642 30.1775Z" fill="#F08021"/>
<path d="M89.097 11.8913C93.1438 11.9768 96.791 13.1339 99.6503 16.2195C103.363 20.2261 104.175 26.3995 101.568 30.9316C101.209 31.5552 100.747 32.1248 100.281 32.6764C100.247 32.717 100.194 32.7417 100.131 32.7577C99.852 32.828 99.5782 32.5637 99.6519 32.2852C99.663 32.2433 99.6801 32.2071 99.706 32.179C104.873 26.6004 102.377 15.0145 92.2723 13.0511C86.1389 11.8593 81.0023 13.7807 76.8708 18.4488C76.8041 18.5242 76.757 18.6509 76.6776 18.6743C76.6233 18.6901 76.5679 18.7021 76.5119 18.7116C76.2577 18.7547 76.0142 18.5396 76.0481 18.2838C76.0532 18.2446 76.065 18.2111 76.0865 18.1861C76.6762 17.4993 77.2593 16.7941 77.9333 16.195C81.1016 13.3791 84.8162 11.946 89.097 11.8913Z" fill="#2064AF"/>
<path d="M101.488 24.9703C101.493 29.3741 99.184 32.8209 95.3203 34.1439C94.8094 34.3188 94.2709 34.4391 93.7355 34.5023C93.5254 34.5271 93.1405 34.3711 93.0934 34.2177C92.9834 33.8609 93.3081 33.7764 93.6102 33.7323C95.4457 33.4645 97.0227 32.6711 98.3085 31.3339C100.143 29.4262 100.842 27.0717 100.667 24.5026C100.28 18.8208 96.0825 14.7282 90.3931 14.3587C90.192 14.3456 89.9909 14.334 89.7899 14.319C89.4904 14.2968 89.159 14.2302 89.2538 13.8543C89.2928 13.7001 89.6336 13.5163 89.8299 13.5245C91.6784 13.6019 93.462 13.9882 95.1337 14.8036C99.0292 16.7036 101.483 20.6384 101.488 24.9703Z" fill="#F08021"/>
<path d="M75.3115 30.4113C75.4218 26.6933 76.097 23.2771 78.3769 20.397C79.1566 19.4118 80.1505 18.5927 81.0814 17.736C81.232 17.5975 81.6866 17.5417 81.7915 17.6503C82.0751 17.9441 81.8037 18.1845 81.5451 18.3739C78.025 20.9503 76.5131 24.5942 76.2164 28.7897C75.7967 34.7218 77.8093 39.7567 82.0993 43.8728C82.3258 44.09 82.5849 44.3131 82.285 44.6279C82.0092 44.9174 81.7772 44.6912 81.5653 44.4908C78.0587 41.1764 76.0031 37.129 75.4533 32.3263C75.3752 31.6458 75.3508 30.9592 75.3115 30.4113Z" fill="#2064AF"/>
<path d="M80.2639 30.4104C80.2632 30.4006 80.2631 30.3914 80.2632 30.3817C80.2925 28.3656 80.5856 26.5481 81.3927 24.8465C81.4045 24.8217 81.4199 24.7987 81.4384 24.7772C81.682 24.492 82.1895 24.716 82.1277 25.0863C82.1237 25.1097 82.1175 25.1324 82.1086 25.1537C79.3974 31.6127 82.2167 39.2473 88.4977 42.3646C89.1802 42.7033 89.8998 42.9755 90.6197 43.2281C91.9053 43.6793 92.5585 44.6075 92.7307 45.9173C92.7727 46.2374 92.8065 46.6381 92.3582 46.6706C91.9532 46.7001 91.9395 46.3442 91.9131 46.0245C91.8231 44.9358 91.2164 44.2978 90.1934 43.9358C85.1135 42.1374 81.9081 38.612 80.6059 33.37C80.4752 32.844 80.4035 32.3002 80.3428 31.7603C80.2874 31.2666 80.2825 30.7671 80.2639 30.4104Z" fill="#F08021"/>
<path d="M89.0649 15.8806C87.4537 15.8756 85.9026 16.1843 84.4066 16.7774C84.1206 16.8911 83.801 17.0543 83.6345 16.6537C83.4625 16.2397 83.8206 16.1419 84.1026 16.0394C88.3121 14.5088 92.387 14.5979 96.1199 17.2982C98.2934 18.8704 99.4772 21.1218 99.8167 23.7902C99.8234 23.8429 99.8118 23.8981 99.7892 23.9547C99.6791 24.23 99.3023 24.3094 99.1183 24.077C99.0914 24.0428 99.0718 24.0071 99.0634 23.9689C97.8916 18.6525 94.4783 15.8817 89.0649 15.8806Z" fill="#2064AF"/>
<path d="M96.4322 38.7806C96.1548 38.8702 96.0725 39.2205 96.2775 39.4279C97.3822 40.5452 98.1591 41.7963 98.6088 43.2573C98.6562 43.4111 98.7417 43.5761 98.7197 43.7223C98.6966 43.8758 98.5765 44.1223 98.4789 44.132C98.3199 44.1482 98.1187 44.0354 97.9855 43.919C97.8941 43.8393 97.886 43.6622 97.8438 43.5275C97.2966 41.7781 96.2867 40.359 94.8313 39.2469C94.7453 39.1812 94.6747 39.0958 94.6089 39.0033C94.4787 38.8208 94.5322 38.5621 94.7248 38.4475C94.8197 38.391 94.9164 38.3431 95.0186 38.3199C98.8894 37.4486 101.822 35.3161 103.791 31.8541C103.803 31.8331 103.817 31.8135 103.834 31.795C104.066 31.5317 104.515 31.7422 104.493 32.0926C104.49 32.1499 104.478 32.2025 104.453 32.2481C102.706 35.4334 100.077 37.5666 96.6405 38.7123C96.5718 38.7352 96.503 38.7577 96.4322 38.7806Z" fill="#2064AF"/>
<path d="M87.204 14.0308C87.1471 14.2105 86.9435 14.4094 86.7581 14.4719C85.4671 14.9079 84.1017 15.1762 82.8781 15.7503C79.5063 17.3326 77.1586 19.9318 75.7876 23.4061C75.7433 23.5186 75.6967 23.6302 75.6575 23.7445C75.5596 24.03 75.4105 24.3322 75.0748 24.1489C74.9348 24.0726 74.8372 23.683 74.9016 23.4996C76.7769 18.1706 81.3978 14.5445 86.6573 13.6833C86.6971 13.6768 87.2362 13.9298 87.204 14.0308Z" fill="#F08021"/>
<path d="M94.1599 45.9028L94.1559 45.9073C94.0028 46.0748 93.7362 46.0753 93.585 45.9059C93.5301 45.8442 93.4889 45.7806 93.479 45.7125C93.2255 43.9899 92.2611 42.9408 90.6139 42.4112C88.0021 41.5716 85.9005 40.0004 84.2858 37.7787C84.1911 37.6484 84.0496 37.5199 84.0285 37.3762C84.0222 37.3317 84.0212 37.2864 84.0238 37.2405C84.0383 36.9977 84.2759 36.827 84.5097 36.8933C84.5672 36.9097 84.6243 36.9276 84.6802 36.9483C84.743 36.9716 84.7777 37.072 84.8242 37.138C86.4017 39.3707 88.4903 40.8977 91.095 41.728C92.7223 42.2465 93.7378 43.361 94.1628 45.014C94.2034 45.1727 94.2207 45.3376 94.2561 45.5877C94.2723 45.7018 94.2374 45.818 94.1599 45.9028Z" fill="#2064AF"/>
<path d="M98.6838 39.6451C99.1171 40.5526 99.5398 41.4149 99.9388 42.2877C100.069 42.5733 100.246 42.9429 99.8031 43.1061C99.3905 43.2582 99.344 42.8585 99.2062 42.6011C98.7137 41.6813 98.2439 40.7462 97.6911 39.8636C97.4153 39.4235 97.4699 39.2534 97.9251 39.0675C100.146 38.1603 102.036 36.7884 103.584 34.9501C103.779 34.7187 104.022 34.4747 104.265 34.7699C104.371 34.8987 104.297 35.3156 104.16 35.4838C102.832 37.1178 101.201 38.3797 99.3216 39.322C99.0926 39.4366 98.8646 39.5534 98.6838 39.6451Z" fill="#F08021"/>
<path d="M101.146 40.1686C100.984 40.2848 100.925 40.5008 101.008 40.6816C101.104 40.8892 101.197 41.0972 101.246 41.3153C101.255 41.3572 101.251 41.4018 101.24 41.4482C101.177 41.7031 100.873 41.8275 100.645 41.6972C100.599 41.6713 100.562 41.6402 100.537 41.601C100.305 41.2286 100.108 40.8222 99.9768 40.4042C99.9224 40.2311 100.003 39.9005 100.139 39.8012C100.965 39.1978 101.815 38.6247 102.682 38.083C102.732 38.0519 102.797 38.046 102.87 38.0523C103.137 38.0749 103.323 38.3606 103.216 38.6057C103.2 38.6419 103.18 38.6719 103.153 38.6933C102.511 39.1956 101.845 39.666 101.146 40.1686Z" fill="#2064AF"/>
<path d="M97.2505 44.0884C97.3863 44.3742 97.3465 44.7254 97.1206 44.9468C97.0824 44.9841 97.0469 45.0063 97.0113 45.0061C96.8457 45.0053 96.5984 44.8583 96.5298 44.7082C96.1486 43.8747 95.7951 43.0273 95.4726 42.1695C95.4137 42.0131 95.4952 41.7504 95.6046 41.6085C95.6528 41.5464 96.0402 41.6089 96.0921 41.709C96.4943 42.4882 96.8679 43.2822 97.2505 44.0884Z" fill="#F08021"/>
<path d="M95.8906 22.3317C95.8415 22.3851 95.7546 22.5643 95.64 22.5841C95.4928 22.6096 95.2701 22.557 95.1727 22.4518C94.5359 21.7631 93.915 21.059 93.3143 20.3386C93.225 20.2315 93.212 19.9877 93.2702 19.854C93.3126 19.7572 93.5399 19.6764 93.6702 19.6944C94.2096 19.769 95.8755 21.699 95.8906 22.3317Z" fill="#2064AF"/>
<path d="M47.6147 42.6356C47.6147 43.0263 47.4322 43.2217 47.0674 43.2217H40.3846C40.0195 43.2217 39.8373 43.0013 39.8373 42.5598C39.8373 41.2869 39.8844 39.3775 39.9788 36.8312C40.0731 34.2852 40.1204 32.3757 40.1204 31.1024C40.1204 30.737 40.0637 30.5417 39.9504 30.5164C39.8118 30.5919 38.9688 32.5393 37.421 36.3585C36.5148 38.6021 35.6087 40.8393 34.7026 43.0704C34.5765 43.3603 34.4194 43.5303 34.2306 43.5809C34.1675 43.5933 33.916 43.5999 33.4756 43.5999C32.8211 43.5999 32.4308 43.4736 32.3051 43.2217C31.6254 41.8352 30.7319 39.8184 29.6245 37.1715C28.4415 34.3732 27.5541 32.3502 26.9628 31.1024C26.9374 31.0395 26.8807 30.97 26.793 30.8945C26.7047 31.008 26.6607 31.1908 26.6607 31.4427C26.6607 32.6782 26.6919 34.531 26.7551 37.0013C26.818 39.4719 26.8495 41.3247 26.8495 42.5598C26.8495 43.0013 26.6731 43.2217 26.3209 43.2217H20.0159C19.7641 43.2217 19.61 43.1809 19.5533 43.0987C19.4968 43.017 19.4685 42.8752 19.4685 42.6733C19.4685 41.2997 19.5346 39.2356 19.6667 36.4814C19.7988 33.7276 19.8648 31.6633 19.8648 30.2894C19.8648 28.8274 19.8018 26.086 19.6761 22.0649C19.6635 21.0188 19.6068 19.4623 19.5062 17.3951L19.4873 17.0735C19.4747 16.8217 19.7389 16.6954 20.2803 16.6954C20.9721 16.6954 22.0104 16.6736 23.395 16.6293C24.7792 16.5853 25.8175 16.5631 26.5097 16.5631C26.648 16.5631 26.8431 16.8277 27.0949 17.3571L32.6072 29.4765C32.9971 30.2959 33.3245 30.7054 33.5887 30.7054C33.7272 30.7054 34.0229 30.2328 34.4761 29.2874C35.747 26.6404 37.6285 22.6511 40.1204 17.3194C40.3342 16.8277 40.5669 16.5821 40.8188 16.5821C41.1836 16.5821 41.7344 16.6009 42.4707 16.6387C43.2068 16.6766 43.7637 16.6954 44.1413 16.6954C44.4556 16.6954 44.9371 16.6642 45.5854 16.6009C46.2333 16.5381 46.7148 16.5063 47.0295 16.5063C47.407 16.5063 47.5958 16.6576 47.5958 16.96C47.5958 18.4477 47.5421 20.6691 47.4353 23.6248C47.3282 26.5808 47.2749 28.8023 47.2749 30.2894C47.2749 31.6633 47.3316 33.7242 47.4449 36.4719C47.5581 39.2198 47.6147 41.2743 47.6147 42.6356Z" fill="#2064AF"/>
<path d="M65.8883 34.9784C65.8883 33.844 65.4162 33.0753 64.4723 32.6718C63.8683 32.4198 62.8867 32.2937 61.5275 32.2937C59.904 32.2937 59.0231 32.3536 58.8847 32.4732C58.746 32.5932 58.677 33.3651 58.677 34.7893C58.677 36.2768 58.7588 37.0992 58.9224 37.2567C59.0859 37.4143 59.992 37.4929 61.6408 37.4929C62.9999 37.4929 63.9562 37.3861 64.5101 37.1716C65.4286 36.8062 65.8883 36.075 65.8883 34.9784ZM65.3218 24.4094C65.3218 23.3256 64.7808 22.6071 63.6985 22.2542C63.0943 22.0651 62.1001 21.9704 60.7157 21.9704C59.3566 21.9704 58.677 22.0716 58.677 22.273C58.677 22.5126 58.655 22.8751 58.6109 23.3602C58.5667 23.8456 58.5449 24.2079 58.5449 24.4472C58.5449 25.7079 58.6517 26.4136 58.8657 26.5649C59.0042 26.6784 59.8032 26.7351 61.2632 26.7351C63.9689 26.7351 65.3218 25.9599 65.3218 24.4094ZM73.4393 35.0541C73.4393 37.3732 72.7155 39.2956 71.2684 40.8205C69.6194 42.5728 66.7252 43.4486 62.5846 43.4486C62.27 43.4486 61.817 43.4421 61.2255 43.4298H59.8852C55.2412 43.4298 52.4787 43.3351 51.5979 43.146C51.2328 43.0705 51.0505 42.8752 51.0505 42.56C51.0505 41.2114 51.129 39.1695 51.2864 36.4343C51.4437 33.6992 51.5225 31.6508 51.5225 30.2894C51.5225 28.8276 51.447 26.0798 51.296 22.0461C51.2582 21.0128 51.1889 19.4624 51.0883 17.3951L51.0693 17.1305C51.0567 16.8912 51.2549 16.746 51.664 16.6956C52.0729 16.6454 53.5297 16.6199 56.0342 16.6199C60.0487 16.6199 62.3959 16.6326 63.0755 16.6577C66.1714 16.7712 68.4556 17.2754 69.9281 18.1702C71.8788 19.3678 72.8542 21.391 72.8542 24.2393C72.8542 24.9832 72.6275 25.7708 72.1745 26.6026C71.8471 27.1953 71.4194 27.7876 70.8909 28.3799C70.4251 28.8969 70.1923 29.1362 70.1923 29.0984C70.1923 29.1867 70.3557 29.3253 70.6831 29.5143C71.5638 30.0185 72.2563 30.819 72.7596 31.9156C73.2128 32.8987 73.4393 33.945 73.4393 35.0541Z" fill="#2064AF"/>
<path d="M127.758 40.7071C127.758 41.9425 127.702 42.6734 127.588 42.9003C127.45 43.1776 127.022 43.3162 126.305 43.3162H125.549C125.172 43.3034 124.854 43.2974 124.596 43.2974C124.338 43.2974 123.954 43.2846 123.445 43.2596C122.935 43.2341 122.554 43.2216 122.303 43.2216C122.101 43.2216 121.195 42.0117 119.584 39.5916C117.973 37.1714 117.137 35.9553 117.074 35.9425C116.809 36.1571 115.903 37.43 114.355 39.7617C112.87 41.9927 112.002 43.1461 111.75 43.2216C111.574 43.2718 111.102 43.2974 110.334 43.2974C107.754 43.2974 106.465 43.1649 106.465 42.9003C106.465 42.6356 106.448 42.2575 106.417 41.7659C106.386 41.2744 106.37 40.9089 106.37 40.6693C106.37 39.1065 106.465 38.1863 106.653 37.9089C106.666 37.8964 107.704 36.5162 109.768 33.7683C111.441 31.5501 112.279 30.2832 112.279 29.968C112.279 29.6532 111.441 28.4053 109.768 26.2244C108.711 24.8759 107.66 23.5207 106.615 22.1595C106.502 21.9958 106.433 21.7246 106.408 21.3465C106.395 21.0819 106.395 20.7226 106.408 20.2689C106.446 19.727 106.465 19.4246 106.465 19.3613C106.465 19.1093 106.442 18.7184 106.398 18.1892C106.354 17.6598 106.332 17.2692 106.332 17.0168C106.332 16.7776 106.552 16.6577 106.993 16.6577C107.282 16.6577 107.71 16.6765 108.277 16.7144C108.843 16.7522 109.265 16.771 109.542 16.771C109.793 16.771 110.165 16.7586 110.655 16.7333C111.146 16.7082 111.511 16.6955 111.75 16.6955C111.951 16.6955 112.867 17.9214 114.497 20.3728C116.127 22.8246 116.979 24.0501 117.055 24.0501C117.306 23.8989 118.232 22.6134 119.83 20.1931C121.352 17.8614 122.227 16.6955 122.454 16.6955H126.946C127.387 16.6955 127.607 16.8028 127.607 17.0168V21.6111C127.607 21.9392 126.635 23.3696 124.691 25.903C122.746 28.4366 121.774 29.779 121.774 29.9301C121.774 30.1447 122.63 31.386 124.341 33.6548C126.355 36.3144 127.406 37.7074 127.494 37.8333C127.67 38.1107 127.758 39.0688 127.758 40.7071Z" fill="#2064AF"/>
<path d="M7.56704 39.4575C7.4561 41.6292 7.39594 42.7237 7.38623 42.7484C7.39435 43.0468 7.58869 43.2332 7.97244 43.3059C8.51265 43.4049 9.76926 43.4545 11.7423 43.4545C13.2149 43.4545 14.3905 43.4049 15.2689 43.3059C15.5933 43.2686 15.7687 43.244 15.7959 43.2314C15.9175 43.1696 15.9783 43.0146 15.9783 42.7668C15.9783 41.3045 15.9377 39.1042 15.8567 36.1669C15.8465 35.7944 15.8368 35.4344 15.8279 35.0861C15.8191 34.7469 15.5638 34.4781 15.2516 34.4781H8.34298C8.03483 34.4781 7.78112 34.7398 7.76711 35.0746C7.71348 36.3502 7.64678 37.8106 7.56704 39.4575Z" fill="#2064AF"/>
<path d="M7.25057 42.158L7.23481 42.4468L7.22638 42.5903L7.22176 42.6609L7.21922 42.6941L7.21794 42.71C7.21794 42.7084 7.21937 42.6984 7.22097 42.693L7.22256 42.6883C7.22717 42.6883 7.21126 42.6805 7.24548 42.6915C7.29259 42.706 7.33859 42.7247 7.38316 42.7468L7.2146 42.7538C7.21746 42.8579 7.24102 42.9706 7.29227 43.0711C7.34241 43.1721 7.41913 43.2528 7.49855 43.31C7.65947 43.4237 7.82977 43.4675 7.98735 43.493C8.29661 43.5413 8.5952 43.559 8.89603 43.5759C9.4964 43.6061 10.0942 43.6145 10.6921 43.6188C11.8866 43.6234 13.083 43.6177 14.28 43.5398C14.5792 43.5198 14.8784 43.4954 15.1777 43.462L15.6259 43.406L15.74 43.3886C15.7691 43.3834 15.8423 43.3752 15.8966 43.3322C15.9953 43.263 16.0488 43.1524 16.0736 43.0569C16.0997 42.9592 16.1058 42.8664 16.1062 42.7771L16.1008 42.5327L16.0895 42.0461L16.0668 41.0725L15.9751 37.1795C15.9614 36.5304 15.944 35.8819 15.9216 35.2337C15.9175 35.1532 15.9208 35.0746 15.9055 34.9774C15.8904 34.8854 15.8583 34.7966 15.8118 34.7182C15.7193 34.5607 15.5687 34.4457 15.4014 34.4054C15.3168 34.3834 15.23 34.3874 15.1598 34.3875L14.9362 34.389L14.4886 34.3917L10.9087 34.4134L9.11886 34.424L8.67144 34.4266L8.44766 34.4279C8.37539 34.4293 8.29581 34.424 8.21559 34.4436C8.05786 34.4795 7.91588 34.5855 7.82802 34.7312C7.78394 34.8038 7.75306 34.886 7.73794 34.9713C7.72282 35.0591 7.72488 35.1398 7.72027 35.2201L7.56078 39.1076C7.54153 39.572 7.58211 39.5752 7.60535 39.1103L7.80065 35.2245C7.80479 35.0585 7.81529 34.9091 7.89869 34.7827C7.97557 34.6579 8.09876 34.5685 8.23374 34.5393C8.36425 34.5162 8.52581 34.5337 8.67128 34.5294L9.1187 34.5321L10.9085 34.5426L14.4886 34.5643L14.936 34.5672C15.0801 34.5731 15.2483 34.5568 15.3634 34.5843C15.4874 34.6157 15.598 34.7025 15.6649 34.8195C15.7376 34.9407 15.7424 35.067 15.7425 35.2393C15.7583 35.8881 15.7688 36.5366 15.776 37.1849L15.8277 41.0748L15.8407 42.0472L15.8473 42.5332L15.8503 42.7752C15.8493 42.8477 15.8425 42.9184 15.8259 42.9764C15.8099 43.0354 15.7841 43.0747 15.7557 43.0936C15.7626 43.1003 15.658 43.1132 15.5931 43.1221L15.1516 43.172C14.8569 43.2016 14.5607 43.2225 14.2644 43.2388C13.0779 43.303 11.8863 43.2962 10.6951 43.2793C10.0998 43.2689 9.50452 43.2546 8.91306 43.2192C8.6186 43.2002 8.3208 43.1787 8.03971 43.132C7.90395 43.1105 7.77789 43.0688 7.6886 43.0036C7.59946 42.9377 7.56254 42.8589 7.55808 42.7428L7.54423 42.8218C7.55187 42.7994 7.55776 42.7706 7.55967 42.7507L7.56142 42.7306L7.56476 42.6914L7.57018 42.6172L7.57973 42.4715L7.59771 42.1812C7.80224 38.5665 7.429 38.5406 7.25057 42.158Z" fill="#2064AF"/>
<path d="M15.9983 23.2389C16.1544 20.5682 16.233 18.5652 16.233 17.2295C16.233 16.9551 16.0355 16.8177 15.6411 16.8177C15.2192 16.8177 14.5967 16.8363 13.7736 16.8738C12.9503 16.9113 12.3276 16.9299 11.9061 16.9299C11.4842 16.9299 10.848 16.9113 9.99773 16.8738C9.14731 16.8363 8.51097 16.8177 8.0895 16.8177C7.77626 16.8177 7.62012 16.9551 7.62012 17.2295C7.62012 18.5652 7.66755 20.5682 7.76289 23.2389C7.79011 24.0028 7.81334 24.7112 7.83276 25.3656C7.84072 25.6302 8.04031 25.8394 8.284 25.8394H15.432C15.672 25.8394 15.8702 25.6363 15.8827 25.3758C15.9149 24.7185 15.9532 24.0067 15.9983 23.2389Z" fill="#2064AF"/>
<path d="M16.3179 20.4882C16.3453 19.8156 16.3692 19.1428 16.3833 18.4688C16.3903 18.1318 16.3951 17.7944 16.3959 17.4566C16.3953 17.368 16.3975 17.2971 16.3943 17.1939C16.3915 17.0809 16.3472 16.9456 16.2628 16.8533C16.0865 16.6725 15.8901 16.6599 15.7239 16.6464L12.0072 16.7729C10.7762 16.7554 9.5408 16.7174 8.29883 16.6908C8.22021 16.6897 8.14635 16.6859 8.06375 16.6868C7.97796 16.6897 7.88819 16.7006 7.79635 16.7377C7.70546 16.7737 7.61076 16.8496 7.55999 16.9553C7.5089 17.0575 7.50014 17.1754 7.50396 17.2615L7.53293 18.2706L7.59118 20.2886C7.63336 21.6333 7.66058 22.9797 7.71756 24.3222L7.75592 25.3297C7.75019 25.5135 7.84123 25.7201 7.99324 25.8236C8.06868 25.8764 8.15638 25.9103 8.24583 25.9157C8.33337 25.9192 8.40325 25.9159 8.48283 25.9164L10.3382 25.9052L14.0487 25.8839L14.9763 25.8786L15.4406 25.8757C15.6076 25.8737 15.768 25.7692 15.8501 25.6125C15.891 25.5349 15.913 25.4436 15.9144 25.3567L15.9268 25.105L15.9518 24.6015L16.0018 23.5948C16.0254 23.1225 15.9845 23.1188 15.9568 23.5918L15.898 24.5982L15.8686 25.1015C15.8514 25.2687 15.8726 25.4447 15.7957 25.5781C15.723 25.7134 15.5834 25.8021 15.4395 25.8022L14.9763 25.8L14.0489 25.7949L10.3384 25.7735L8.48299 25.7624C8.40802 25.7613 8.32319 25.763 8.25634 25.7594C8.19124 25.7549 8.12869 25.7292 8.07457 25.6908C7.96554 25.6095 7.90331 25.4778 7.9076 25.3245L7.87975 24.3162C7.83646 22.9711 7.82341 21.6278 7.79476 20.2842L7.75719 18.2689L7.73825 17.2614C7.73411 17.1039 7.77375 17.0246 7.88102 16.9811C7.93466 16.9601 8.00088 16.951 8.06916 16.9497L8.29772 16.9567C9.52871 16.9975 10.7662 17.0497 12.008 17.0808L15.7096 16.9928C15.8455 16.9982 15.9814 17.0364 16.0305 17.0973C16.054 17.1263 16.0677 17.1584 16.0696 17.2132L16.0688 17.4546C16.0653 17.789 16.0578 18.1239 16.0481 18.459C16.0289 19.129 16.0002 19.7994 15.9681 20.4697C15.8764 22.3057 15.906 23.2315 15.9985 23.2389C16.0871 23.2459 16.239 22.3334 16.3179 20.4882Z" fill="#2064AF"/>
<path d="M15.3894 26.4665H8.30346C8.0593 26.4665 7.86305 26.6866 7.86942 26.952C7.89361 27.9643 7.90587 28.8081 7.90587 29.481C7.90587 30.3321 7.87037 31.6873 7.79971 33.5395C7.78936 33.8074 7.98672 34.0317 8.23359 34.0317H15.3868C15.6308 34.0317 15.8271 33.8133 15.821 33.5482C15.7828 31.8448 15.7637 30.4888 15.7637 29.481C15.7637 28.8098 15.7836 27.9686 15.8231 26.9599C15.8336 26.6916 15.6362 26.4665 15.3894 26.4665Z" fill="#2064AF"/>
<path d="M13.1128 26.2761L9.7907 26.2931L8.96017 26.2978L8.54491 26.3001L8.3372 26.3014C8.26764 26.2989 8.15591 26.3124 8.07505 26.3532C7.903 26.4337 7.77216 26.6057 7.7346 26.8048C7.72441 26.8543 7.72139 26.905 7.72155 26.9552L7.72377 27.068L7.72823 27.2934L7.74574 28.1948C7.79046 29.3969 7.74542 30.5987 7.72298 31.8008L7.70452 32.7026L7.69513 33.1535L7.69051 33.379C7.69067 33.4573 7.68335 33.5193 7.69099 33.6223C7.70849 33.8122 7.8172 33.985 7.96905 34.0761C8.04529 34.1213 8.13156 34.1464 8.21782 34.1487L8.42856 34.148L9.25925 34.1425L12.582 34.12L14.2434 34.1087L15.0739 34.1032L15.2816 34.1018L15.3854 34.101C15.4245 34.0999 15.4646 34.0959 15.503 34.0851C15.6582 34.0451 15.7892 33.9186 15.8468 33.7586C15.8762 33.6805 15.8834 33.5863 15.8799 33.5109L15.8754 33.2853L15.8665 32.834L15.8489 31.9316L15.8137 30.1264C15.7922 29.5244 15.8124 28.9231 15.8226 28.3217L15.8393 27.4194L15.8478 26.9682C15.8554 26.8101 15.7893 26.6483 15.6739 26.5514C15.5036 26.4165 15.3835 26.4632 15.3895 26.4664C15.3859 26.4857 15.4958 26.4667 15.6458 26.5895C15.8772 26.7793 15.775 27.1264 15.7855 27.4173L15.7596 28.3202C15.7433 28.9223 15.7169 29.5244 15.732 30.1265L15.7478 31.933L15.7556 32.8364L15.7593 33.288L15.7613 33.5139C15.7632 33.5887 15.757 33.6473 15.7343 33.7097C15.6894 33.8297 15.5894 33.9236 15.4737 33.9515C15.4449 33.9593 15.4156 33.9617 15.3855 33.9625L15.2818 33.9617L15.074 33.9604L14.2435 33.9547L12.5821 33.9435L9.25925 33.921L8.42856 33.9153L8.22403 33.9134C8.17199 33.9112 8.12121 33.8954 8.07601 33.8681C7.98608 33.812 7.92241 33.7079 7.91382 33.5965L7.9673 31.8071C8.00311 30.6019 8.06121 29.3966 8.02905 28.1905L8.02062 27.286L8.01855 27.0599L8.01744 26.9472C8.01807 26.9222 8.01935 26.8973 8.02492 26.8734C8.04386 26.7766 8.11023 26.6925 8.19347 26.6548C8.24027 26.6359 8.2686 26.6304 8.33752 26.6316L8.54507 26.6328L8.96033 26.6352L9.79086 26.6399L13.1128 26.6569C16.1457 26.6713 16.151 26.2617 13.1128 26.2761Z" fill="#2064AF"/>
<path d="M10.3258 23.4137H14.4959C14.5632 23.4137 14.6178 23.359 14.6178 23.2916V23.1441C14.6178 23.0767 14.5632 23.022 14.4959 23.022H10.3258C10.2585 23.022 10.2039 23.0767 10.2039 23.1441V23.2916C10.2039 23.359 10.2585 23.4137 10.3258 23.4137Z" fill="#F08021"/>
<path d="M10.3258 19.4304H14.4959C14.5632 19.4304 14.6178 19.3757 14.6178 19.3083V19.1609C14.6178 19.0934 14.5632 19.0387 14.4959 19.0387H10.3258C10.2585 19.0387 10.2039 19.0934 10.2039 19.1609V19.3083C10.2039 19.3757 10.2585 19.4304 10.3258 19.4304Z" fill="#F08021"/>
<path d="M8.6543 21.3301C8.6543 21.6838 8.94064 21.9706 9.29382 21.9706C9.64701 21.9706 9.93335 21.6838 9.93335 21.3301C9.93335 20.9763 9.64701 20.6895 9.29382 20.6895C8.94064 20.6895 8.6543 20.9763 8.6543 21.3301Z" fill="white"/>
<path d="M10.3258 32.3998H14.4959C14.5632 32.3998 14.6178 32.3451 14.6178 32.2777V32.1302C14.6178 32.0628 14.5632 32.0081 14.4959 32.0081H10.3258C10.2585 32.0081 10.2039 32.0628 10.2039 32.1302V32.2777C10.2039 32.3451 10.2585 32.3998 10.3258 32.3998Z" fill="#F08021"/>
<path d="M10.3258 28.4164H14.4959C14.5632 28.4164 14.6178 28.3617 14.6178 28.2943V28.1468C14.6178 28.0794 14.5632 28.0247 14.4959 28.0247H10.3258C10.2585 28.0247 10.2039 28.0794 10.2039 28.1468V28.2943C10.2039 28.3617 10.2585 28.4164 10.3258 28.4164Z" fill="#F08021"/>
<path d="M8.6543 30.316C8.6543 30.6698 8.94064 30.9565 9.29382 30.9565C9.64701 30.9565 9.93335 30.6698 9.93335 30.316C9.93335 29.9623 9.64701 29.6755 9.29382 29.6755C8.94064 29.6755 8.6543 29.9623 8.6543 30.316Z" fill="white"/>
<path d="M10.3258 41.1538H14.4959C14.5632 41.1538 14.6178 41.099 14.6178 41.0315V40.8842C14.6178 40.8168 14.5632 40.7621 14.4959 40.7621H10.3258C10.2585 40.7621 10.2039 40.8168 10.2039 40.8842V41.0315C10.2039 41.099 10.2585 41.1538 10.3258 41.1538Z" fill="#F08021"/>
<path d="M10.3258 37.1704H14.4959C14.5632 37.1704 14.6178 37.1157 14.6178 37.0483V36.901C14.6178 36.8334 14.5632 36.7787 14.4959 36.7787H10.3258C10.2585 36.7787 10.2039 36.8334 10.2039 36.901V37.0483C10.2039 37.1157 10.2585 37.1704 10.3258 37.1704Z" fill="#F08021"/>
<path d="M8.6543 39.07C8.6543 39.4239 8.94064 39.7107 9.29382 39.7107C9.64701 39.7107 9.93335 39.4239 9.93335 39.07C9.93335 38.7163 9.64701 38.4295 9.29382 38.4295C8.94064 38.4295 8.6543 38.7163 8.6543 39.07Z" fill="white"/>
<path d="M29.6146 49.242C29.5569 49.337 29.478 49.4811 29.3774 49.6739C29.3457 49.7631 29.2895 49.8899 29.2092 50.0541C29.192 50.0799 29.1689 50.0928 29.1402 50.0928C29.143 50.0928 29.0045 50.0416 28.724 49.9396C28.4437 49.8373 28.2129 49.7862 28.0318 49.7862C27.5028 49.7862 27.2384 50.0195 27.2384 50.4859C27.2384 50.7451 27.4238 50.9712 27.7947 51.1641C28.4184 51.4894 28.7635 51.6766 28.8297 51.7253C29.2006 52.0222 29.386 52.4223 29.386 52.9262C29.386 53.5712 29.1315 54.0796 28.6226 54.451C28.1655 54.785 27.6033 54.952 26.9364 54.952C26.6259 54.952 26.4591 54.9176 26.4362 54.8484C26.4246 54.7389 26.3988 54.5792 26.3585 54.3687C26.3354 54.2825 26.2996 54.1529 26.2508 53.9801C26.2422 53.9543 26.2379 53.9299 26.2379 53.9068C26.2379 53.8664 26.2593 53.8463 26.3025 53.8463C26.3716 53.8463 26.4772 53.8537 26.6194 53.8679C26.7618 53.8822 26.869 53.8895 26.9407 53.8895C27.8319 53.8895 28.2777 53.6016 28.2777 53.0255C28.2777 52.7434 28.098 52.4988 27.7386 52.2914C27.083 51.9171 26.7481 51.7226 26.7338 51.7081C26.3716 51.4145 26.1904 51.0201 26.1904 50.5247C26.1904 49.9892 26.3657 49.5602 26.7165 49.2375C27.0585 48.9265 27.5015 48.7711 28.0449 48.7711C28.2749 48.7711 28.5392 48.8086 28.8383 48.8833C29.1632 48.9669 29.4076 49.0678 29.5714 49.1856C29.5858 49.1974 29.6001 49.216 29.6146 49.242Z" fill="#F08021"/>
<path d="M36.8295 54.7059C36.8295 54.8181 36.7963 54.8744 36.7303 54.8744C36.6872 54.8744 36.6217 54.8699 36.5342 54.8613C36.4463 54.8527 36.3795 54.8486 36.3335 54.8486C36.2846 54.8486 36.2113 54.8513 36.1135 54.857C36.0158 54.8629 35.9424 54.8658 35.8937 54.8658C35.8332 54.8658 35.8032 54.798 35.8032 54.6627C35.8032 54.5302 35.8081 54.3322 35.8183 54.0689C35.8281 53.8054 35.8332 53.6072 35.8332 53.4749C35.8332 52.7465 35.8304 52.3405 35.8246 52.257C35.8016 51.9603 35.7412 51.7558 35.6435 51.6436C35.5315 51.5226 35.3315 51.4622 35.0441 51.4622C34.863 51.4622 34.6588 51.5486 34.4318 51.7212C34.1959 51.9028 34.0738 52.0813 34.0651 52.257C34.0536 52.4816 34.0479 52.8918 34.0479 53.4877C34.0479 53.6291 34.0536 53.8406 34.0651 54.1229C34.0765 54.4051 34.0824 54.6166 34.0824 54.7577C34.0824 54.8353 34.0565 54.8744 34.0047 54.8744C33.953 54.8744 33.8776 54.8699 33.7782 54.8613C33.6792 54.8527 33.6036 54.8486 33.5519 54.8486C33.5059 54.8486 33.4383 54.8513 33.3493 54.857C33.26 54.8629 33.1924 54.8658 33.1465 54.8658C33.0891 54.8658 33.0603 54.8239 33.0603 54.7405C33.0603 54.6023 33.0645 54.3941 33.0731 54.1164C33.0819 53.8385 33.0862 53.6305 33.0862 53.4923V52.4512C33.0862 52.126 33.0474 51.894 32.9697 51.7558C32.8603 51.56 32.652 51.4622 32.3443 51.4622C32.1634 51.4622 31.9477 51.5385 31.6975 51.6911C31.4215 51.8581 31.2835 52.0265 31.2835 52.1964V53.4577C31.2835 53.6016 31.2849 53.816 31.2878 54.1011C31.2906 54.3861 31.2921 54.5994 31.2921 54.7405C31.2921 54.8239 31.259 54.8658 31.1929 54.8658H30.3907C30.3333 54.8658 30.3046 54.8267 30.3046 54.7491C30.3046 54.5159 30.306 54.1653 30.3089 53.6974C30.3116 53.2292 30.3132 52.8789 30.3132 52.6456C30.3132 52.1188 30.2572 51.5932 30.145 51.069C30.1364 51.0316 30.1321 51.0016 30.1321 50.9783C30.1321 50.941 30.145 50.9194 30.1709 50.9135C30.2771 50.9021 30.4324 50.8806 30.6366 50.8489C30.7315 50.82 30.8738 50.7885 31.0635 50.7539L31.0981 50.7494C31.1326 50.7494 31.1649 50.8508 31.1951 51.0541C31.2252 51.2568 31.2518 51.3585 31.2749 51.3585L31.4906 51.1685C31.6601 51.0217 31.8297 50.9048 31.9994 50.8184C32.2437 50.6919 32.4882 50.6284 32.7325 50.6284C33.3939 50.6284 33.815 50.8993 33.9961 51.4405C34.1743 51.2103 34.3957 51.0203 34.6603 50.8703C34.9421 50.7092 35.2209 50.6284 35.4969 50.6284C36.0287 50.6284 36.3967 50.7839 36.6009 51.095C36.7475 51.3254 36.8209 51.6896 36.8209 52.1878C36.8209 52.2828 36.818 52.4298 36.8123 52.6284C36.8064 52.827 36.8035 52.974 36.8035 53.0689C36.8035 53.2503 36.808 53.523 36.8166 53.8875C36.8252 54.2517 36.8295 54.5243 36.8295 54.7059Z" fill="#F08021"/>
<path d="M40.7756 52.7621C40.7756 52.4079 40.6705 52.1042 40.4607 51.8509C40.2392 51.5772 39.9562 51.4404 39.6111 51.4404C39.2662 51.4404 38.9786 51.5759 38.7486 51.8464C38.5272 52.1056 38.4166 52.4111 38.4166 52.7621C38.4166 53.1107 38.5272 53.4131 38.7486 53.6692C38.9786 53.937 39.2662 54.071 39.6111 54.071C39.9476 54.071 40.2292 53.9343 40.4564 53.6605C40.6691 53.4044 40.7756 53.1048 40.7756 52.7621ZM41.8752 50.9567C41.8752 50.9684 41.871 50.9942 41.8624 51.0344C41.7503 51.694 41.6941 52.2627 41.6941 52.7406C41.6941 52.7694 41.7301 53.416 41.8019 54.6798L41.8063 54.7404C41.809 54.8239 41.771 54.8657 41.692 54.8657C41.6129 54.8657 41.4937 54.8751 41.3339 54.8938C41.1744 54.9124 41.0559 54.9218 40.9782 54.9218C40.9236 54.9218 40.8817 54.8211 40.8532 54.6194C40.8244 54.4179 40.7971 54.3172 40.7713 54.3172C40.7539 54.3172 40.6763 54.3733 40.5384 54.4857C40.3686 54.6239 40.2107 54.7289 40.0639 54.8008C39.8368 54.9159 39.6097 54.9736 39.3826 54.9736C38.8248 54.9736 38.3547 54.7508 37.9723 54.3043C37.6101 53.8781 37.429 53.3814 37.429 52.8139C37.429 52.1747 37.6115 51.6464 37.9768 51.229C38.359 50.7941 38.8622 50.5765 39.486 50.5765C39.9259 50.5765 40.3099 50.7293 40.6376 51.0344C40.6863 51.0921 40.7625 51.1758 40.8661 51.2848C40.8747 51.2936 40.8833 51.2979 40.8919 51.2979C40.9093 51.2979 40.9336 51.2072 40.9653 51.0258C40.997 50.8444 41.0371 50.7538 41.0861 50.7538C41.1636 50.7538 41.3088 50.7753 41.5216 50.8185C41.7573 50.8703 41.8752 50.9166 41.8752 50.9567Z" fill="#F08021"/>
<path d="M45.045 50.8099C45.045 51.1266 45.0235 51.4145 44.9803 51.6737C44.9717 51.7399 44.9428 51.773 44.8941 51.773C44.8336 51.773 44.7424 51.7665 44.6203 51.7538C44.4979 51.7407 44.4051 51.7342 44.3419 51.7342C43.9798 51.7342 43.7482 51.8363 43.6476 52.041C43.5873 52.1646 43.5571 52.4223 43.5571 52.8139V53.2891C43.5571 53.4504 43.5634 53.6951 43.5765 54.0233C43.5894 54.3516 43.5959 54.5966 43.5959 54.7577C43.5959 54.8354 43.5628 54.8743 43.4967 54.8743C43.4076 54.8743 43.2725 54.8727 43.0914 54.87C42.9102 54.8671 42.7751 54.8657 42.686 54.8657C42.6197 54.8657 42.5868 54.8298 42.5868 54.7577C42.5868 54.5244 42.5905 54.1733 42.5976 53.7037C42.6048 53.2344 42.6083 52.8816 42.6083 52.6457C42.6083 51.9345 42.5421 51.3627 42.41 50.9307C42.4042 50.9078 42.4014 50.8905 42.4014 50.8789C42.4014 50.8443 42.42 50.8199 42.4574 50.8057C42.5637 50.7941 42.7133 50.7769 42.9059 50.7538C43.2165 50.6961 43.3602 50.6674 43.3373 50.6674C43.3831 50.6674 43.4133 50.7525 43.4277 50.9221C43.4422 51.0922 43.4679 51.1772 43.5053 51.1772C43.5111 51.1772 43.5184 51.1743 43.5268 51.1684C43.6448 51.0935 43.7626 51.0189 43.8807 50.9438C44.0099 50.8661 44.1422 50.8084 44.2773 50.7711C44.3895 50.7365 44.5332 50.7193 44.7086 50.7193C44.9327 50.7193 45.045 50.7493 45.045 50.8099Z" fill="#F08021"/>
<path d="M47.9215 54.071C47.9215 54.1341 47.9156 54.2205 47.9043 54.3302C47.8899 54.4655 47.8813 54.5532 47.8784 54.5934C47.8755 54.6453 47.8712 54.677 47.8655 54.6885C47.8539 54.7088 47.8267 54.7289 47.7835 54.7489C47.5477 54.8612 47.1768 54.9176 46.671 54.9176C45.9982 54.9176 45.6617 54.6123 45.6617 54.0018C45.6617 53.7571 45.6674 53.3893 45.6791 52.8983C45.6904 52.4072 45.6962 52.0396 45.6962 51.7945C45.6962 51.6766 45.6372 51.6131 45.5194 51.6045C45.4131 51.6045 45.3082 51.6032 45.2046 51.6004C45.1443 51.5859 45.114 51.4679 45.114 51.2462C45.114 51.1626 45.1197 51.0748 45.1314 50.9825C45.14 50.9133 45.186 50.8719 45.2694 50.8574C45.3411 50.8574 45.4117 50.8559 45.4807 50.8529C45.6128 50.8473 45.6791 50.7883 45.6791 50.6759C45.6791 50.5608 45.6754 50.385 45.6682 50.1489C45.6611 49.913 45.6574 49.7359 45.6574 49.6176C45.6574 49.4075 45.6977 49.3024 45.7782 49.3024C45.804 49.3024 46.0743 49.3471 46.589 49.4363C46.6551 49.4448 46.6882 49.4767 46.6882 49.5312C46.6882 49.6579 46.6788 49.8481 46.66 50.1014C46.6414 50.3549 46.632 50.5451 46.632 50.6716C46.632 50.7552 46.671 50.7969 46.7485 50.7969H47.7835C47.8324 50.7969 47.8569 50.8142 47.8569 50.8487C47.8569 50.8833 47.8518 50.9387 47.8418 51.015C47.8318 51.0914 47.8267 51.1483 47.8267 51.1856C47.8267 51.2289 47.8281 51.2951 47.831 51.3842C47.8338 51.4735 47.8353 51.5398 47.8353 51.5832C47.8353 51.6377 47.795 51.6649 47.7145 51.6649C47.5995 51.6649 47.4256 51.657 47.1927 51.6415C46.9599 51.6256 46.7859 51.6176 46.671 51.6176C46.6479 51.6176 46.6305 51.6995 46.6191 51.8636C46.6048 52.0683 46.5976 52.3546 46.5976 52.7233V53.3668C46.5976 53.6146 46.6205 53.7874 46.6665 53.8851C46.7356 54.0349 46.8779 54.1097 47.0936 54.1097C47.1825 54.1097 47.3135 54.0902 47.4859 54.0515C47.6584 54.0126 47.7862 53.9932 47.8698 53.9932C47.9043 53.9932 47.9215 54.0192 47.9215 54.071Z" fill="#F08021"/>
<path d="M54.8216 53.9282C54.8216 54.3315 54.8001 54.618 54.7569 54.7879C54.7367 54.8713 54.6864 54.9131 54.6061 54.9131C54.3931 54.9131 54.074 54.901 53.6485 54.8764C53.2231 54.8519 52.9039 54.8398 52.6911 54.8398C52.4899 54.8398 52.1894 54.8439 51.7899 54.8527C51.3901 54.8613 51.0898 54.8657 50.8886 54.8657C50.8166 54.8657 50.7807 54.8297 50.7807 54.7577C50.7807 54.4438 50.7915 53.9702 50.8131 53.3367C50.8346 52.7031 50.8454 52.2281 50.8454 51.9113C50.8454 51.5772 50.8303 51.0768 50.8001 50.4103C50.77 49.7438 50.7549 49.2434 50.7549 48.9094C50.7549 48.846 50.7907 48.8143 50.8626 48.8143C50.9144 48.8143 50.9935 48.8186 51.0998 48.8273C51.2061 48.8361 51.2867 48.8402 51.3414 48.8402C51.3931 48.8402 51.4735 48.8361 51.5829 48.8273C51.6921 48.8186 51.7726 48.8143 51.8243 48.8143C51.8934 48.8143 51.9278 48.8418 51.9278 48.8965C51.9278 49.2016 51.9163 49.6607 51.8934 50.2742C51.8703 50.8876 51.8589 51.3483 51.8589 51.6564V52.3387C51.856 52.6442 51.8546 52.8716 51.8546 53.0213C51.8546 53.6604 51.8803 53.98 51.9322 53.98C52.9931 53.98 53.7937 53.9542 54.3342 53.9024C54.3601 53.8995 54.4262 53.8897 54.5327 53.8723C54.6189 53.8551 54.685 53.8463 54.731 53.8463C54.7915 53.8463 54.8216 53.8737 54.8216 53.9282Z" fill="#F08021"/>
<path d="M58.3104 52.7708C58.3104 52.4196 58.2027 52.1201 57.987 51.8724C57.7628 51.6104 57.4782 51.4794 57.1331 51.4794C56.7882 51.4794 56.502 51.609 56.2749 51.8682C56.0592 52.1186 55.9515 52.4196 55.9515 52.7708C55.9515 53.1163 56.0606 53.4159 56.2792 53.6693C56.5092 53.9369 56.7938 54.071 57.1331 54.071C57.4751 54.071 57.7599 53.9369 57.987 53.6693C58.2027 53.4159 58.3104 53.1163 58.3104 52.7708ZM59.2204 52.762C59.2204 53.3641 59.0234 53.8781 58.6296 54.3042C58.227 54.7448 57.7282 54.965 57.1331 54.965C56.5351 54.965 56.0349 54.7463 55.6323 54.3085C55.2384 53.8851 55.0415 53.3726 55.0415 52.7708C55.0415 52.1692 55.2384 51.6565 55.6323 51.2331C56.0377 50.8013 56.538 50.5853 57.1331 50.5853C57.7254 50.5853 58.2227 50.8013 58.6253 51.2331C59.0221 51.6536 59.2204 52.1631 59.2204 52.762Z" fill="#F08021"/>
<path d="M62.8387 50.948C62.8387 51.0114 62.8056 51.1525 62.7394 51.3712C62.6732 51.5903 62.6273 51.6996 62.6016 51.6996C62.4722 51.6421 62.342 51.5845 62.2111 51.5268C62.0803 51.4694 61.9374 51.4404 61.782 51.4404C61.4285 51.4404 61.1337 51.5716 60.898 51.8337C60.6623 52.0956 60.5443 52.4052 60.5443 52.7621C60.5443 53.1134 60.6623 53.4173 60.898 53.6736C61.1395 53.9386 61.4342 54.071 61.782 54.071C61.9746 54.071 62.1645 54.0234 62.3514 53.9282C62.5382 53.8334 62.6202 53.786 62.5971 53.786C62.6345 53.786 62.6762 53.9068 62.7222 54.1487C62.7653 54.3674 62.787 54.5187 62.787 54.6022C62.787 54.6915 62.6188 54.7793 62.2823 54.8657C62.0006 54.9376 61.792 54.9736 61.6571 54.9736C61.0647 54.9736 60.5644 54.752 60.1563 54.3084C59.7566 53.8766 59.5569 53.3613 59.5569 52.7621C59.5569 52.1519 59.7523 51.6336 60.1433 51.2072C60.5458 50.7698 61.0475 50.5507 61.6483 50.5507C62.0509 50.5507 62.4188 50.6529 62.7525 50.8574C62.8099 50.8919 62.8387 50.9222 62.8387 50.948Z" fill="#F08021"/>
<path d="M66.5775 52.1056C66.5775 51.694 66.3116 51.488 65.7796 51.488C65.383 51.488 64.9359 51.753 64.4385 52.2827V52.9263C64.6713 52.9695 64.9531 52.9913 65.2838 52.9913C65.6171 52.9913 65.9019 52.9279 66.1376 52.8011C66.4309 52.6428 66.5775 52.411 66.5775 52.1056ZM67.6169 51.9028C67.6169 52.6514 67.2702 53.1525 66.5775 53.4058C66.5775 53.5526 66.865 54.0104 67.4399 54.7793C67.4399 54.8225 67.2962 54.8513 67.0087 54.8657C66.819 54.8743 66.6767 54.8786 66.5818 54.8786C66.3776 54.8786 66.2496 54.8354 66.1979 54.749C66.0628 54.5188 65.8501 54.1832 65.5597 53.7428C65.5253 53.6908 65.2131 53.6693 64.6239 53.6777L64.4557 53.6824V54.749C64.4557 54.8384 64.424 54.8831 64.3608 54.8831C64.2688 54.8831 64.1331 54.8813 63.9534 54.8786C63.7737 54.8757 63.6377 54.8743 63.5457 54.8743C63.4825 54.8743 63.4509 54.8182 63.4509 54.7059V52.0192C63.4509 51.6682 63.4373 51.1426 63.41 50.4428C63.3826 49.7431 63.3689 49.2175 63.3689 48.8662C63.3689 48.8144 63.3963 48.7857 63.4509 48.7798C63.5457 48.7769 63.6895 48.7712 63.882 48.7624C63.9223 48.7597 64.0072 48.7495 64.1366 48.7323C64.24 48.7179 64.3234 48.7106 64.3868 48.7106C64.4269 48.7106 64.4471 48.7452 64.4471 48.8144C64.4471 48.9698 64.4398 49.2016 64.4254 49.5099C64.4111 49.818 64.404 50.0497 64.404 50.2051V51.3194C64.404 51.38 64.4168 51.4104 64.4428 51.4104C64.5117 51.3525 64.6153 51.2676 64.7533 51.1553C65.2362 50.781 65.6962 50.5939 66.1333 50.5939C66.5587 50.5939 66.9067 50.7034 67.1769 50.9221C67.4703 51.1612 67.6169 51.488 67.6169 51.9028Z" fill="#F08021"/>
<path d="M70.8341 52.2827C70.8341 52.0438 70.7396 51.8322 70.5516 51.6478C70.3632 51.4635 70.151 51.3712 69.9154 51.3712C69.6507 51.3712 69.4158 51.478 69.2103 51.691C69.0048 51.9041 68.902 52.1431 68.902 52.4079C68.902 52.4685 68.9539 52.4987 69.0574 52.4987C69.4828 52.4987 69.9917 52.4555 70.5838 52.3691C70.7507 52.346 70.8341 52.3173 70.8341 52.2827ZM71.8603 52.5461C71.8603 52.7592 71.7684 52.9021 71.5843 52.974C71.4608 53.0199 70.5709 53.1048 68.9147 53.2287C68.9521 53.482 69.0919 53.6982 69.3332 53.8766C69.5632 54.0463 69.8104 54.1315 70.0747 54.1315C70.5292 54.1315 70.946 53.9846 71.3255 53.6908C71.3716 53.6535 71.4176 53.6159 71.4635 53.5786C71.4865 53.5786 71.5017 53.5813 71.5088 53.5872C71.5158 53.5931 71.5699 53.6931 71.6705 53.8874C71.7713 54.0817 71.8216 54.186 71.8216 54.2005C71.8216 54.2179 71.7985 54.251 71.7527 54.2998C71.3299 54.749 70.788 54.9736 70.1266 54.9736C69.4596 54.9736 68.9278 54.7742 68.5312 54.3754C68.1344 53.9767 67.936 53.4445 67.936 52.7793C67.936 52.1865 68.1258 51.6695 68.5052 51.229C68.9049 50.7712 69.3951 50.542 69.9757 50.542C70.5164 50.542 70.9677 50.7407 71.3299 51.138C71.6836 51.5239 71.8603 51.9934 71.8603 52.5461Z" fill="#F08021"/>
<path d="M74.9307 50.8099C74.9307 51.1266 74.909 51.4145 74.8662 51.6737C74.8573 51.7399 74.8285 51.773 74.78 51.773C74.7193 51.773 74.6281 51.7665 74.506 51.7538C74.3835 51.7407 74.291 51.7342 74.2278 51.7342C73.8657 51.7342 73.6341 51.8363 73.5335 52.041C73.4731 52.1646 73.4427 52.4223 73.4427 52.8139V53.2891C73.4427 53.4504 73.4492 53.6951 73.4622 54.0233C73.4751 54.3516 73.4816 54.5966 73.4816 54.7577C73.4816 54.8354 73.4485 54.8743 73.3825 54.8743C73.2934 54.8743 73.1584 54.8727 72.9771 54.87C72.7961 54.8671 72.6608 54.8657 72.5719 54.8657C72.5056 54.8657 72.4725 54.8298 72.4725 54.7577C72.4725 54.5244 72.476 54.1733 72.4832 53.7037C72.4905 53.2344 72.4939 52.8816 72.4939 52.6457C72.4939 51.9345 72.428 51.3627 72.2959 50.9307C72.29 50.9078 72.2871 50.8905 72.2871 50.8789C72.2871 50.8443 72.3059 50.8199 72.3431 50.8057C72.4495 50.7941 72.5992 50.7769 72.7917 50.7538C73.1022 50.6961 73.2459 50.6674 73.223 50.6674C73.2688 50.6674 73.2991 50.7525 73.3136 50.9221C73.3279 51.0922 73.3537 51.1772 73.3909 51.1772C73.3968 51.1772 73.404 51.1743 73.4127 51.1684C73.5307 51.0935 73.6483 51.0189 73.7664 50.9438C73.8956 50.8661 74.0279 50.8084 74.163 50.7711C74.2752 50.7365 74.419 50.7193 74.5944 50.7193C74.8186 50.7193 74.9307 50.7493 74.9307 50.8099Z" fill="#F08021"/>
<path d="M81.0765 49.242C81.0192 49.337 80.9401 49.4811 80.8393 49.6739C80.8076 49.7631 80.7516 49.8899 80.6712 50.0541C80.654 50.0799 80.631 50.0928 80.6023 50.0928C80.605 50.0928 80.4664 50.0416 80.1859 49.9396C79.9058 49.8373 79.6749 49.7862 79.4939 49.7862C78.9648 49.7862 78.7003 50.0195 78.7003 50.4859C78.7003 50.7451 78.8856 50.9712 79.2567 51.1641C79.8805 51.4894 80.2256 51.6766 80.2916 51.7253C80.6623 52.0222 80.8479 52.4223 80.8479 52.9262C80.8479 53.5712 80.5934 54.0796 80.0849 54.451C79.6274 54.785 79.0653 54.952 78.3985 54.952C78.088 54.952 77.9213 54.9176 77.8981 54.8484C77.8868 54.7389 77.8609 54.5792 77.8206 54.3687C77.7973 54.2825 77.7615 54.1529 77.7125 53.9801C77.7042 53.9543 77.6998 53.9299 77.6998 53.9068C77.6998 53.8664 77.7214 53.8463 77.7642 53.8463C77.8333 53.8463 77.9392 53.8537 78.0815 53.8679C78.2237 53.8822 78.3309 53.8895 78.4027 53.8895C79.2941 53.8895 79.7398 53.6016 79.7398 53.0255C79.7398 52.7434 79.5601 52.4988 79.2005 52.2914C78.5451 51.9171 78.2101 51.7226 78.1956 51.7081C77.8333 51.4145 77.6523 51.0201 77.6523 50.5247C77.6523 49.9892 77.8277 49.5602 78.1784 49.2375C78.5204 48.9265 78.9636 48.7711 79.5066 48.7711C79.7368 48.7711 80.0013 48.8086 80.3001 48.8833C80.6251 48.9669 80.8694 49.0678 81.0335 49.1856C81.0477 49.1974 81.0622 49.216 81.0765 49.242Z" fill="#F08021"/>
<path d="M84.7332 52.7708C84.7332 52.4196 84.6256 52.1201 84.41 51.8724C84.1859 51.6104 83.9009 51.4794 83.556 51.4794C83.2111 51.4794 82.9251 51.609 82.6978 51.8682C82.4823 52.1186 82.3745 52.4196 82.3745 52.7708C82.3745 53.1163 82.4837 53.4159 82.7021 53.6693C82.9323 53.9369 83.217 54.071 83.556 54.071C83.8982 54.071 84.183 53.9369 84.41 53.6693C84.6256 53.4159 84.7332 53.1163 84.7332 52.7708ZM85.6433 52.762C85.6433 53.3641 85.4463 53.8781 85.0527 54.3042C84.6501 54.7448 84.1513 54.965 83.556 54.965C82.9582 54.965 82.4578 54.7463 82.0553 54.3085C81.6613 53.8851 81.4646 53.3726 81.4646 52.7708C81.4646 52.1692 81.6613 51.6565 82.0553 51.2331C82.4607 50.8013 82.9609 50.5853 83.556 50.5853C84.1485 50.5853 84.6455 50.8013 85.0482 51.2331C85.445 51.6536 85.6433 52.1631 85.6433 52.762Z" fill="#F08021"/>
<path d="M87.3426 48.8748L87.3381 48.9311C87.2749 50.0022 87.2432 50.9222 87.2432 51.691C87.2432 52.0336 87.2491 52.5469 87.2604 53.2309C87.2721 53.9147 87.2778 54.4265 87.2778 54.7662C87.2778 54.8326 87.2547 54.8657 87.2087 54.8657H86.3849C86.3331 54.8657 86.3075 54.8326 86.3075 54.7662C86.3075 54.4265 86.3104 53.9147 86.3159 53.2309C86.3218 52.5469 86.3247 52.0336 86.3247 51.691C86.3247 51.38 86.3097 50.9128 86.2793 50.2895C86.2493 49.666 86.2341 49.2002 86.2341 48.892C86.2341 48.8347 86.2642 48.8056 86.3247 48.8056C86.3766 48.8056 86.4539 48.8101 86.5574 48.8186C86.661 48.8273 86.7388 48.8316 86.7906 48.8316C86.845 48.8316 86.9255 48.8273 87.032 48.8186C87.1384 48.8101 87.2175 48.8056 87.2692 48.8056C87.3208 48.8056 87.3454 48.8288 87.3426 48.8748Z" fill="#F08021"/>
<path d="M92.1898 50.9479C92.1898 51.1584 92.1811 51.4758 92.1639 51.9006C92.1467 52.3253 92.1381 52.6443 92.1381 52.8572C92.1381 53.0675 92.1446 53.382 92.1574 53.801C92.1704 54.2199 92.1768 54.5346 92.1768 54.7447C92.1768 54.8024 92.1494 54.8397 92.095 54.8569C92.0719 54.863 91.78 54.8657 91.2195 54.8657C91.1852 54.8657 91.1642 54.7576 91.157 54.5416C91.1497 54.3256 91.1333 54.2178 91.1072 54.2178C91.093 54.2178 91.0714 54.2307 91.0427 54.2566C90.5624 54.6742 90.088 54.8831 89.6196 54.8831C88.9841 54.8831 88.5645 54.6525 88.3601 54.192C88.2338 53.9068 88.1704 53.3945 88.1704 52.6541C88.1704 51.9864 88.2236 51.4203 88.3299 50.9567C88.356 50.8443 88.4034 50.7884 88.4725 50.7884C88.5559 50.7884 88.6807 50.7898 88.8475 50.7925C89.0145 50.7955 89.1393 50.797 89.2227 50.797C89.2804 50.797 89.3089 50.8287 89.3089 50.8918C89.3089 51.0044 89.2903 51.1915 89.2531 51.4534C89.2128 51.7327 89.191 51.9299 89.1883 52.0452C89.1797 52.2178 89.1752 52.4079 89.1752 52.6152C89.1752 53.1193 89.2114 53.4576 89.2831 53.6304C89.4068 53.9412 89.6812 54.0968 90.1067 54.0968C90.2881 54.0968 90.502 54.0076 90.7494 53.829C91.011 53.6417 91.1462 53.4619 91.1548 53.2891C91.1693 53.0731 91.1763 52.313 91.1763 51.0085C91.1763 50.8674 91.2353 50.797 91.3531 50.797H92.0649C92.148 50.797 92.1898 50.8474 92.1898 50.9479Z" fill="#F08021"/>
<path d="M95.4717 54.071C95.4717 54.1341 95.466 54.2205 95.4546 54.3302C95.4401 54.4655 95.4315 54.5532 95.4285 54.5934C95.4256 54.6453 95.4214 54.677 95.4156 54.6885C95.4041 54.7088 95.3766 54.7289 95.3337 54.7489C95.0979 54.8612 94.727 54.9176 94.221 54.9176C93.5481 54.9176 93.2121 54.6123 93.2121 54.0018C93.2121 53.7571 93.2176 53.3893 93.2293 52.8983C93.2406 52.4072 93.2466 52.0396 93.2466 51.7945C93.2466 51.6766 93.1874 51.6131 93.0695 51.6045C92.9633 51.6045 92.8581 51.6032 92.7546 51.6004C92.6945 51.5859 92.6641 51.4679 92.6641 51.2462C92.6641 51.1626 92.67 51.0748 92.6814 50.9825C92.69 50.9133 92.736 50.8719 92.8194 50.8574C92.8912 50.8574 92.9615 50.8559 93.0306 50.8529C93.163 50.8473 93.2293 50.7883 93.2293 50.6759C93.2293 50.5608 93.2256 50.385 93.2183 50.1489C93.2111 49.913 93.2075 49.7359 93.2075 49.6176C93.2075 49.4075 93.2479 49.3024 93.3283 49.3024C93.3542 49.3024 93.6245 49.3471 94.1391 49.4363C94.2053 49.4448 94.2382 49.4767 94.2382 49.5312C94.2382 49.6579 94.2288 49.8481 94.2102 50.1014C94.1916 50.3549 94.1822 50.5451 94.1822 50.6716C94.1822 50.7552 94.221 50.7969 94.2989 50.7969H95.3337C95.3825 50.7969 95.407 50.8142 95.407 50.8487C95.407 50.8833 95.4019 50.9387 95.3918 51.015C95.3818 51.0914 95.3766 51.1483 95.3766 51.1856C95.3766 51.2289 95.3783 51.2951 95.3812 51.3842C95.3839 51.4735 95.3855 51.5398 95.3855 51.5832C95.3855 51.6377 95.3452 51.6649 95.2647 51.6649C95.1498 51.6649 94.9758 51.657 94.7429 51.6415C94.5099 51.6256 94.3359 51.6176 94.221 51.6176C94.1981 51.6176 94.1809 51.6995 94.1691 51.8636C94.155 52.0683 94.1478 52.3546 94.1478 52.7233V53.3668C94.1478 53.6146 94.1707 53.7874 94.2167 53.8851C94.2858 54.0349 94.4278 54.1097 94.6438 54.1097C94.7327 54.1097 94.8636 54.0902 95.0361 54.0515C95.2086 54.0126 95.3365 53.9932 95.42 53.9932C95.4546 53.9932 95.4717 54.0192 95.4717 54.071Z" fill="#F08021"/>
<path d="M97.1797 50.8703C97.1797 51.0922 97.166 51.4268 97.1386 51.8748C97.1111 52.3222 97.0976 52.6584 97.0976 52.883C97.0976 53.0933 97.1019 53.408 97.1106 53.8271C97.119 54.2459 97.1235 54.559 97.1235 54.7662C97.1235 54.8266 97.0976 54.8571 97.0458 54.8571H96.2048C96.1446 54.8571 96.1144 54.7981 96.1144 54.6798C96.1144 54.4812 96.1193 54.1826 96.1295 53.7837C96.1395 53.3847 96.1446 53.0849 96.1446 52.883C96.1446 52.6584 96.1279 52.3216 96.0951 51.8724C96.062 51.4231 96.0455 51.0861 96.0455 50.8615C96.0455 50.8129 96.0757 50.7884 96.1357 50.7884C96.1876 50.7884 96.2677 50.7955 96.3753 50.8099C96.4832 50.8242 96.5644 50.8316 96.6189 50.8316C96.6735 50.8316 96.7547 50.8242 96.8628 50.8099C96.9704 50.7955 97.0517 50.7884 97.1063 50.7884C97.1553 50.7884 97.1797 50.8156 97.1797 50.8703ZM97.2098 49.6999C97.2098 50.0541 97.0127 50.2311 96.6189 50.2311C96.2193 50.2311 96.0195 50.0541 96.0195 49.6999C96.0195 49.5416 96.0813 49.4104 96.2048 49.3066C96.32 49.2089 96.458 49.16 96.6189 49.16C96.7799 49.16 96.9187 49.2103 97.0352 49.3112C97.1515 49.4121 97.2098 49.5416 97.2098 49.6999Z" fill="#F08021"/>
<path d="M101.03 52.7708C101.03 52.4196 100.923 52.1201 100.707 51.8724C100.483 51.6104 100.198 51.4794 99.8532 51.4794C99.5082 51.4794 99.2222 51.609 98.9949 51.8682C98.7794 52.1186 98.6717 52.4196 98.6717 52.7708C98.6717 53.1163 98.7809 53.4159 98.9992 53.6693C99.2294 53.9369 99.5141 54.071 99.8532 54.071C100.195 54.071 100.48 53.9369 100.707 53.6693C100.923 53.4159 101.03 53.1163 101.03 52.7708ZM101.94 52.762C101.94 53.3641 101.743 53.8781 101.35 54.3042C100.947 54.7448 100.448 54.965 99.8532 54.965C99.2553 54.965 98.7549 54.7463 98.3524 54.3085C97.9584 53.8851 97.7617 53.3726 97.7617 52.7708C97.7617 52.1692 97.9584 51.6565 98.3524 51.2331C98.7578 50.8013 99.258 50.5853 99.8532 50.5853C100.446 50.5853 100.943 50.8013 101.345 51.2331C101.742 51.6536 101.94 52.1631 101.94 52.762Z" fill="#F08021"/>
<path d="M106.348 54.7794C106.348 54.8425 106.319 54.8744 106.262 54.8744C106.167 54.8744 106.025 54.8728 105.837 54.8699C105.648 54.8672 105.507 54.8658 105.412 54.8658C105.36 54.8658 105.334 54.8239 105.334 54.7405C105.334 54.5994 105.339 54.3847 105.348 54.0969C105.356 53.809 105.36 53.5932 105.36 53.4491C105.36 53.334 105.359 53.162 105.356 52.9329C105.353 52.704 105.352 52.532 105.352 52.4167C105.352 52.0883 105.304 51.8567 105.21 51.7212C105.094 51.56 104.882 51.4795 104.571 51.4795C104.428 51.4795 104.228 51.56 103.972 51.7212C103.701 51.8913 103.566 52.0424 103.566 52.1747V54.7663C103.566 54.8384 103.539 54.8744 103.485 54.8744C103.393 54.8744 103.254 54.8728 103.071 54.8699C102.886 54.8672 102.748 54.8658 102.657 54.8658C102.596 54.8658 102.566 54.8326 102.566 54.7663C102.566 54.5388 102.569 54.1978 102.577 53.7427C102.584 53.2878 102.587 52.9452 102.587 52.7148C102.587 52.1014 102.523 51.5355 102.393 51.0171C102.385 50.9912 102.38 50.9726 102.38 50.9611C102.38 50.9324 102.399 50.912 102.436 50.9007C102.456 50.8978 102.621 50.8709 102.93 50.8208C103.239 50.7705 103.401 50.7451 103.415 50.7451C103.433 50.7451 103.444 50.7684 103.45 50.8143C103.464 50.9928 103.497 51.1727 103.549 51.3541C103.699 51.2361 103.895 51.0894 104.14 50.9135C104.442 50.7293 104.733 50.6372 105.015 50.6372C105.556 50.6372 105.925 50.7942 106.124 51.1081C106.27 51.3385 106.344 51.7113 106.344 52.2265C106.344 52.316 106.342 52.4527 106.337 52.637C106.333 52.8213 106.331 52.9595 106.331 53.0517C106.331 53.2446 106.334 53.5326 106.339 53.9155C106.345 54.2984 106.348 54.5865 106.348 54.7794Z" fill="#F08021"/>
<path d="M109.186 53.5353C109.186 53.9645 109.015 54.3085 108.673 54.5677C108.362 54.8038 107.984 54.9218 107.538 54.9218C107.366 54.9218 107.268 54.9176 107.245 54.9088C107.196 54.8859 107.172 54.8153 107.172 54.6971C107.172 54.634 107.164 54.5388 107.148 54.4121C107.132 54.2855 107.124 54.192 107.124 54.1314C107.124 54.0941 107.15 54.0697 107.202 54.0579C107.239 54.0493 107.293 54.0493 107.362 54.0579C107.451 54.0665 107.494 54.071 107.491 54.071C108.034 54.071 108.306 53.9041 108.306 53.5699C108.306 53.4118 108.187 53.2662 107.948 53.1335C107.56 52.9208 107.337 52.7896 107.28 52.7407C107.041 52.5361 106.921 52.2683 106.921 51.9374C106.921 51.5054 107.084 51.1684 107.409 50.9265C107.702 50.7105 108.073 50.6026 108.521 50.6026C108.562 50.6026 108.591 50.6214 108.61 50.6587C108.629 50.696 108.665 50.8129 108.718 51.0085C108.771 51.2044 108.798 51.3225 108.798 51.3627C108.798 51.3944 108.77 51.4145 108.716 51.4231C108.532 51.4491 108.346 51.4735 108.159 51.4968C107.938 51.5572 107.827 51.6782 107.827 51.8594C107.827 51.9892 107.944 52.1201 108.177 52.2524C108.521 52.4456 108.74 52.5851 108.832 52.6715C109.068 52.8961 109.186 53.184 109.186 53.5353Z" fill="#F08021"/>
</g>
</g>
<defs>
<clipPath id="clip0_3_31">
<rect width="134" height="65" fill="white"/>
</clipPath>
</defs>
</svg>
